<?xml version="1.0" encoding="UTF-8" standalone="no"?>
<!-- Created with Inkscape (http://www.inkscape.org/) -->

<svg
   xmlns:dc="http://purl.org/dc/elements/1.1/"
   xmlns:cc="http://creativecommons.org/ns#"
   xmlns:rdf="http://www.w3.org/1999/02/22-rdf-syntax-ns#"
   xmlns:svg="http://www.w3.org/2000/svg"
   xmlns="http://www.w3.org/2000/svg"
   xmlns:xlink="http://www.w3.org/1999/xlink"
   version="1.1"
   width="32"
   height="32"
   id="svg2">
  <defs
     id="defs4">
    <linearGradient
       id="linearGradient3707">
      <stop
         id="stop7"
         style="stop-color:#b8b8b8;stop-opacity:1"
         offset="0" />
      <stop
         id="stop9"
         style="stop-color:#000000;stop-opacity:1"
         offset="1" />
    </linearGradient>
    <radialGradient
       cx="45.594002"
       cy="7.6817999"
       r="2.5747001"
       id="radialGradient3329"
       xlink:href="#linearGradient3707"
       gradientUnits="userSpaceOnUse"
       gradientTransform="matrix(1,0,0,1.3883883,0,-3.4105348)" />
    <radialGradient
       cx="45.594002"
       cy="7.4675999"
       r="2.5747001"
       id="radialGradient3331"
       xlink:href="#linearGradient3707"
       gradientUnits="userSpaceOnUse"
       gradientTransform="matrix(1,0,0,1.3883883,0,-3.4105348)" />
    <radialGradient
       cx="49.469002"
       cy="11.949"
       r="2.5627999"
       id="radialGradient3333"
       gradientUnits="userSpaceOnUse"
       gradientTransform="matrix(1,0,0,1.4267738,0,-5.6547523)">
      <stop
         id="stop14"
         style="stop-color:#eea6a6;stop-opacity:1"
         offset="0" />
      <stop
         id="stop16"
         style="stop-color:#b22222;stop-opacity:1"
         offset="1" />
    </radialGradient>
    <linearGradient
       x1="16.614"
       y1="32.062"
       x2="16.614"
       y2="60.504002"
       id="linearGradient3111"
       gradientUnits="userSpaceOnUse"
       gradientTransform="matrix(0.93490996,0,0,0.97700366,0.42899952,1.7809899)">
      <stop
         id="stop19"
         style="stop-color:#fffe72;stop-opacity:1"
         offset="0" />
      <stop
         id="stop21"
         style="stop-color:#fdfc95;stop-opacity:1"
         offset="0.21206" />
      <stop
         id="stop23"
         style="stop-color:#f8e471;stop-opacity:1"
         offset="0.5" />
      <stop
         id="stop25"
         style="stop-color:#fad165;stop-opacity:1"
         offset="0.85396999" />
      <stop
         id="stop27"
         style="stop-color:#e5a83d;stop-opacity:1"
         offset="1" />
    </linearGradient>
    <linearGradient
       x1="16.164"
       y1="32.062"
       x2="16.164"
       y2="60.504002"
       id="linearGradient3113"
       gradientUnits="userSpaceOnUse"
       gradientTransform="matrix(0.97674611,0,0,0.97700366,0.17318387,1.7809899)">
      <stop
         id="stop30"
         style="stop-color:#fde857;stop-opacity:1"
         offset="0" />
      <stop
         id="stop32"
         style="stop-color:#f9dd3b;stop-opacity:1"
         offset="0.29244" />
      <stop
         id="stop34"
         style="stop-color:#f8bc3a;stop-opacity:1"
         offset="0.75" />
      <stop
         id="stop36"
         style="stop-color:#cf971c;stop-opacity:1"
         offset="1" />
    </linearGradient>
  </defs>
  <metadata
     id="metadata38">
    <rdf:RDF>
      <cc:Work
         rdf:about="">
        <dc:format>image/svg+xml</dc:format>
        <dc:type
           rdf:resource="http://purl.org/dc/dcmitype/StillImage" />
        <dc:title></dc:title>
      </cc:Work>
    </rdf:RDF>
  </metadata>
  <g
     transform="translate(0,-32)"
     id="g40">
    <path
       d="m 8.1879,33.58 c -2.8377,0 -5.115,2.3088 -5.115,5.1473 v 8.2481 l -2.573,5.6124 2.573,-0.03101 v 4.3411 c 0,1.9528 1.5508,3.5039 3.503,3.5039 h 1.612 15.562 1.581 c 1.9523,0 3.534,-1.5511 3.534,-3.5039 v -4.3411 l 2.635,0.03101 -2.635,-5.6744 v -8.186 c 0,-2.8385 -2.2773,-5.1473 -5.115,-5.1473 H 8.1879 z"
       id="path42"
       style="fill:url(#linearGradient3111);fill-rule:nonzero;stroke:url(#linearGradient3113);stroke-width:0.99987864;stroke-linecap:square;stroke-linejoin:round;stroke-miterlimit:4;stroke-dasharray:none;stroke-dashoffset:0" />
    <path
       d="m 47.562,8.7812 c 0,1.6396 -0.88144,2.9688 -1.9688,2.9688 -1.0873,0 -1.9688,-1.3292 -1.9688,-2.9688 0,-1.6396 0.88144,-2.9688 1.9688,-2.9688 1.0873,0 1.9688,1.3292 1.9688,2.9688 z"
       transform="matrix(0.82470246,0,0,0.81253706,-24.701232,33.948288)"
       id="path44"
       style="fill:url(#radialGradient3329);fill-rule:nonzero;stroke:#fdf886;stroke-width:1.22145426;stroke-linecap:butt;stroke-linejoin:round;stroke-miterlimit:4;stroke-dasharray:none;stroke-dashoffset:0" />
    <path
       d="m 47.562,8.7812 c 0,1.6396 -0.88144,2.9688 -1.9688,2.9688 -1.0873,0 -1.9688,-1.3292 -1.9688,-2.9688 0,-1.6396 0.88144,-2.9688 1.9688,-2.9688 1.0873,0 1.9688,1.3292 1.9688,2.9688 z"
       transform="matrix(0.82470246,0,0,0.81253706,-18.501325,33.948288)"
       id="path46"
       style="fill:url(#radialGradient3331);fill-rule:nonzero;stroke:#fdf886;stroke-width:1.22145426;stroke-linecap:butt;stroke-linejoin:round;stroke-miterlimit:4;stroke-dasharray:none;stroke-dashoffset:0" />
    <path
       d="m 51.5,13.25 c 0,1.7259 -0.90942,3.125 -2.0312,3.125 -1.12178,0 -2.0312,-1.3991 -2.0312,-3.125 0,-1.7259 0.90942,-3.125 2.0312,-3.125 1.12178,0 2.0312,1.3991 2.0312,3.125 z"
       transform="matrix(0.93096113,0,0,0.93540818,-30.053483,32.813251)"
       id="path48"
       style="fill:url(#radialGradient3333);fill-rule:nonzero;stroke:#fbef7c;stroke-width:1.07147264;stroke-linecap:butt;stroke-linejoin:round;stroke-miterlimit:4;stroke-dasharray:none;stroke-dashoffset:0" />
    <path
       d="m 26.543,60.153 0,2.1085"
       id="path50"
       style="fill:none;stroke:#d1981d;stroke-width:0.99987888px;stroke-linecap:butt;stroke-linejoin:miter" />
    <path
       d="m 6.9375,31 c -0.33588,0.33588 -2.0391,0.33588 -2.375,0 -0.33588,-0.33588 -0.33588,-2.0391 0,-2.375 0.33588,-0.33588 2.0391,-0.33588 2.375,0 0.33588,0.33588 0.33588,2.0391 0,2.375 z"
       transform="matrix(0.93037393,0,0,0.66911754,21.193548,43.088801)"
       id="path52"
       style="fill:#b22222;fill-rule:nonzero" />
    <path
       d="m 5.2814,60.153 0,2.1085"
       id="path54"
       style="fill:none;stroke:#d0981d;stroke-width:0.99987888px;stroke-linecap:butt;stroke-linejoin:miter" />
    <path
       d="m 6.9375,31 c -0.33588,0.33588 -2.0391,0.33588 -2.375,0 -0.33588,-0.33588 -0.33588,-2.0391 0,-2.375 0.33588,-0.33588 2.0391,-0.33588 2.375,0 0.33588,0.33588 0.33588,2.0391 0,2.375 z"
       transform="matrix(0.93037393,0,0,0.66911754,-0.06821205,43.088801)"
       id="path56"
       style="fill:#b22222;fill-rule:nonzero" />
  </g>
</svg>
