<?xml version="1.0" standalone="no"?>
<!DOCTYPE svg PUBLIC "-//W3C//DTD SVG 1.1//EN" "http://www.w3.org/Graphics/SVG/1.1/DTD/svg11.dtd">
<svg xmlns="http://www.w3.org/2000/svg" xmlns:xlink="http://www.w3.org/1999/xlink" viewBox="0 0 65535 65535" >
  <title>Export to SVG</title>
  <desc>Generated by CADtoSVG Version 1.0: 07/11/2012 11:00:23</desc>
<path d="M12813,25863 L13806,23590 M13806,23590 L33021,51090 M33021,51090 L12813,25863 M33021,51090 L13806,23590 M13806,23590 L15090,21573 M15090,21573 L33021,51090 M33021,51090 L15090,21573 M15090,21573 L16634,19860 M16634,19860 L33021,51090 M33021,51090 L16634,19860 M16634,19860 L18402,18491 M18402,18491 L33021,51090 M33021,51090 L18402,18491 M18402,18491 L20352,17497 M20352,17497 L33021,51090 M33021,51090 L20352,17497 M20352,17497 L22439,16902 M22439,16902 L33021,51090 M33021,51090 L22439,16902 M22439,16902 L24615,16720 M24615,16720 L33021,51090 M33021,51090 L24615,16720 M24615,16720 L26827,16955 M26827,16955 L33021,51090 M33021,51090 L26827,16955 M26827,16955 L29024,17601 M29024,17601 L33021,51090 M33021,51090 L29024,17601 M29024,17601 L31154,18645 M31154,18645 L33021,51090 M33021,51090 L31154,18645 M31154,18645 L33168,20060 M33168,20060 L33021,51090 M33021,51090 L33168,20060 M33168,20060 L35019,21814 M35019,21814 L33021,51090 M33021,51090 L35019,21814 M35019,21814 L34885,49905 M34885,49905 L33021,51090 M34885,49905 L35019,21814 M35019,21814 L36663,23866 M36663,23866 L34885,49905 M34885,49905 L36663,23866 M36663,23866 L38061,26168 M38061,26168 L34885,49905 M34885,49905 L38061,26168 M38061,26168 L39181,28665 M39181,28665 L34885,49905 M34885,49905 L39181,28665 M39181,28665 L39996,31299 M39996,31299 L34885,49905 M34885,49905 L39996,31299 M39996,31299 L40488,34009 M40488,34009 L34885,49905 M34885,49905 L40488,34009 M40488,34009 L40644,36731 M40644,36731 L34885,49905 M34885,49905 L40644,36731 M40644,36731 L40462,39401 M40462,39401 L34885,49905 M34885,49905 L40462,39401 M40462,39401 L36546,48359 M36546,48359 L34885,49905 M36546,48359 L40462,39401 M40462,39401 L39945,41957 M39945,41957 L36546,48359 M36546,48359 L39945,41957 M39945,41957 L37964,46489 M37964,46489 L36546,48359 M37964,46489 L39945,41957 M39945,41957 L39106,44338 M39106,44338 L37964,46489 M12813,25863 L33021,51090 M33021,51090 L12133,28338 M12133,28338 L12813,25863 M12133,28338 L33021,51090 M33021,51090 L11782,30959 M11782,30959 L12133,28338 M11782,30959 L33021,51090 M33021,51090 L11769,33662 M11769,33662 L11782,30959 M11769,33662 L33021,51090 M33021,51090 L30996,51887 M30996,51887 L11769,33662 M11769,33662 L30996,51887 M30996,51887 L12094,36386 M12094,36386 L11769,33662 M12094,36386 L30996,51887 M30996,51887 L28859,52277 M28859,52277 L12094,36386 M12094,36386 L28859,52277 M28859,52277 L12750,39066 M12750,39066 L12094,36386 M12750,39066 L28859,52277 M28859,52277 L26659,52250 M26659,52250 L12750,39066 M12750,39066 L26659,52250 M26659,52250 L13720,41640 M13720,41640 L12750,39066 M13720,41640 L26659,52250 M26659,52250 L24448,51808 M24448,51808 L13720,41640 M13720,41640 L24448,51808 M24448,51808 L14983,44046 M14983,44046 L13720,41640 M14983,44046 L24448,51808 M24448,51808 L22277,50960 M22277,50960 L14983,44046 M14983,44046 L22277,50960 M22277,50960 L16508,46229 M16508,46229 L14983,44046 M16508,46229 L22277,50960 M22277,50960 L20199,49727 M20199,49727 L16508,46229 M16508,46229 L20199,49727 M20199,49727 L18261,48138 M18261,48138 L16508,46229 M29067,21514 L27937,23246 M27937,23246 L28320,23584 M28320,23584 L29067,21514 M28320,23584 L27937,23246 M27937,23246 L27093,25232 M27093,25232 L28320,23584 M28320,23584 L27093,25232 M27093,25232 L27491,25546 M27491,25546 L28320,23584 M27491,25546 L27093,25232 M27093,25232 L26562,27410 M26562,27410 L27491,25546 M27491,25546 L26562,27410 M26562,27410 L26981,27702 M26981,27702 L27491,25546 M26981,27702 L26562,27410 M26562,27410 L26359,29714 M26359,29714 L26981,27702 M26981,27702 L26359,29714 M26359,29714 L26804,29983 M26804,29983 L26981,27702 M26804,29983 L26359,29714 M26359,29714 L26491,32075 M26491,32075 L26804,29983 M26804,29983 L26491,32075 M26491,32075 L26967,32314 M26967,32314 L26804,29983 M26967,32314 L26491,32075 M26491,32075 L26953,34421 M26953,34421 L26967,32314 M26967,32314 L26953,34421 M26953,34421 L27465,34622 M27465,34622 L26967,32314 M27465,34622 L26953,34421 M26953,34421 L27732,36680 M27732,36680 L27465,34622 M27465,34622 L27732,36680 M27732,36680 L28280,36831 M28280,36831 L27465,34622 M28280,36831 L27732,36680 M27732,36680 L28804,38784 M28804,38784 L28280,36831 M28280,36831 L28804,38784 M28804,38784 L29388,38872 M29388,38872 L28280,36831 M29388,38872 L28804,38784 M28804,38784 L30136,40669 M30136,40669 L29388,38872 M29388,38872 L30136,40669 M30136,40669 L30753,40677 M30753,40677 L29388,38872 M30753,40677 L30136,40669 M30136,40669 L31688,42277 M31688,42277 L30753,40677 M30753,40677 L31688,42277 M31688,42277 L32330,42191 M32330,42191 L30753,40677 M32330,42191 L31688,42277 M31688,42277 L33413,43560 M33413,43560 L32330,42191 M32330,42191 L33413,43560 M33413,43560 L34070,43363 M34070,43363 L32330,42191 M34070,43363 L33413,43560 M33413,43560 L35258,44479 M35258,44479 L34070,43363 M34070,43363 L35258,44479 M35258,44479 L35915,44156 M35915,44156 L34070,43363 M35915,44156 L35258,44479 M35258,44479 L37167,45006 M37167,45006 L35915,44156 M35915,44156 L37167,45006 M37167,45006 L37807,44544 M37807,44544 L35915,44156 M37807,44544 L37167,45006 M37167,45006 L39082,45124 M39082,45124 L37807,44544 M37807,44544 L39082,45124 M39082,45124 L39686,44516 M39686,44516 L37807,44544 M39686,44516 L39082,45124 M39082,45124 L40946,44831 M40946,44831 L39686,44516 M39686,44516 L40946,44831 M40946,44831 L41489,44072 M41489,44072 L39686,44516 M41489,44072 L40946,44831 M40946,44831 L42700,44135 M42700,44135 L41489,44072 M41489,44072 L42700,44135 M42700,44135 L43161,43226 M43161,43226 L41489,44072 M43161,43226 L42700,44135 M42700,44135 L44293,43058 M44293,43058 L43161,43226 M43161,43226 L44293,43058 M44293,43058 L44646,42005 M44646,42005 L43161,43226 M44646,42005 L44293,43058 M44293,43058 L45676,41631 M45676,41631 L44646,42005 M44646,42005 L45676,41631 M45676,41631 L45898,40449 M45898,40449 L44646,42005 M45898,40449 L45676,41631 M45676,41631 L46806,39898 M46806,39898 L45898,40449 M45898,40449 L46806,39898 M46806,39898 L46876,38608 M46876,38608 L45898,40449 M46876,38608 L46806,39898 M46806,39898 L47650,37913 M47650,37913 L46876,38608 M46876,38608 L47650,37913 M47650,37913 L47548,36541 M47548,36541 L46876,38608 M47548,36541 L47650,37913 M47650,37913 L48181,35735 M48181,35735 L47548,36541 M47548,36541 L48181,35735 M48181,35735 L47893,34314 M47893,34314 L47548,36541 M47893,34314 L48181,35735 M48181,35735 L48384,33431 M48384,33431 L47893,34314 M47893,34314 L48384,33431 M48384,33431 L47900,31998 M47900,31998 L47893,34314 M47900,31998 L48384,33431 M48384,33431 L48252,31070 M48252,31070 L47900,31998 M47900,31998 L48252,31070 M48252,31070 L47568,29670 M47568,29670 L47900,31998 M47568,29670 L48252,31070 M48252,31070 L47790,28724 M47790,28724 L47568,29670 M47568,29670 L47790,28724 M47790,28724 L46909,27402 M46909,27402 L47568,29670 M46909,27402 L47790,28724 M47790,28724 L47011,26465 M47011,26465 L46909,27402 M46909,27402 L47011,26465 M47011,26465 L45943,25268 M45943,25268 L46909,27402 M45943,25268 L47011,26465 M47011,26465 L45939,24361 M45939,24361 L45943,25268 M45943,25268 L45939,24361 M45939,24361 L44702,23337 M44702,23337 L45943,25268 M44702,23337 L45939,24361 M45939,24361 L44607,22476 M44607,22476 L44702,23337 M44702,23337 L44607,22476 M44607,22476 L43225,21671 M43225,21671 L44702,23337 M43225,21671 L44607,22476 M44607,22476 L43055,20868 M43055,20868 L43225,21671 M43225,21671 L43055,20868 M43055,20868 L41560,20323 M41560,20323 L43225,21671 M41560,20323 L43055,20868 M43055,20868 L41330,19585 M41330,19585 L41560,20323 M41560,20323 L41330,19585 M41330,19585 L39760,19336 M39760,19336 L41560,20323 M39760,19336 L41330,19585 M41330,19585 L39485,18666 M39485,18666 L39760,19336 M39760,19336 L39485,18666 M39485,18666 L37884,18743 M37884,18743 L39760,19336 M37884,18743 L39485,18666 M39485,18666 L37576,18139 M37576,18139 L37884,18743 M37884,18743 L37576,18139 M37576,18139 L35991,18562 M35991,18562 L37884,18743 M35991,18562 L37576,18139 M37576,18139 L35661,18021 M35661,18021 L35991,18562 M35991,18562 L35661,18021 M35661,18021 L34142,18800 M34142,18800 L35991,18562 M34142,18800 L35661,18021 M35661,18021 L33797,18314 M33797,18314 L34142,18800 M34142,18800 L33797,18314 M33797,18314 L32398,19447 M32398,19447 L34142,18800 M32398,19447 L33797,18314 M33797,18314 L32043,19010 M32043,19010 L32398,19447 M32398,19447 L32043,19010 M32043,19010 L30813,20485 M30813,20485 L32398,19447 M30813,20485 L32043,19010 M32043,19010 L30450,20087 M30450,20087 L30813,20485 M30813,20485 L30450,20087 M30450,20087 L29439,21879 M29439,21879 L30813,20485 M29439,21879 L30450,20087 M30450,20087 L29067,21514 M29067,21514 L29439,21879 M29439,21879 L29067,21514 M29067,21514 L28320,23584 M28320,23584 L29439,21879 M28320,23584 L27491,25546 M27491,25546 L13623,26162 M13623,26162 L28320,23584 M13623,26162 L27491,25546 M27491,25546 L12964,28610 M12964,28610 L13623,26162 M12964,28610 L27491,25546 M27491,25546 L26981,27702 M26981,27702 L12964,28610 M12964,28610 L26981,27702 M26981,27702 L12639,31201 M12639,31201 L12964,28610 M12639,31201 L26981,27702 M26981,27702 L26804,29983 M26804,29983 L12639,31201 M12639,31201 L26804,29983 M26804,29983 L12656,33872 M12656,33872 L12639,31201 M12656,33872 L26804,29983 M26804,29983 L26967,32314 M26967,32314 L12656,33872 M12656,33872 L26967,32314 M26967,32314 L13013,36556 M13013,36556 L12656,33872 M13013,36556 L26967,32314 M26967,32314 L27465,34622 M27465,34622 L13013,36556 M13013,36556 L27465,34622 M27465,34622 L13704,39188 M13704,39188 L13013,36556 M13704,39188 L27465,34622 M27465,34622 L28280,36831 M28280,36831 L13704,39188 M13704,39188 L28280,36831 M28280,36831 L14709,41703 M14709,41703 L13704,39188 M14709,41703 L28280,36831 M28280,36831 L29388,38872 M29388,38872 L14709,41703 M14709,41703 L29388,38872 M29388,38872 L16006,44039 M16006,44039 L14709,41703 M16006,44039 L29388,38872 M29388,38872 L17561,46139 M17561,46139 L16006,44039 M17561,46139 L29388,38872 M29388,38872 L30753,40677 M30753,40677 L17561,46139 M17561,46139 L30753,40677 M30753,40677 L19336,47950 M19336,47950 L17561,46139 M19336,47950 L30753,40677 M30753,40677 L32330,42191 M32330,42191 L19336,47950 M19336,47950 L32330,42191 M32330,42191 L21288,49429 M21288,49429 L19336,47950 M21288,49429 L32330,42191 M32330,42191 L34070,43363 M34070,43363 L21288,49429 M21288,49429 L34070,43363 M34070,43363 L23369,50538 M23369,50538 L21288,49429 M23369,50538 L34070,43363 M34070,43363 L35915,44156 M35915,44156 L23369,50538 M23369,50538 L35915,44156 M35915,44156 L25527,51250 M25527,51250 L23369,50538 M25527,51250 L35915,44156 M35915,44156 L37807,44544 M37807,44544 L25527,51250 M25527,51250 L37807,44544 M37807,44544 L27710,51549 M27710,51549 L25527,51250 M27710,51549 L37807,44544 M37807,44544 L39686,44516 M39686,44516 L27710,51549 M27710,51549 L39686,44516 M39686,44516 L29863,51426 M29863,51426 L27710,51549 M29863,51426 L39686,44516 M39686,44516 L41489,44072 M41489,44072 L29863,51426 M29863,51426 L41489,44072 M41489,44072 L31933,50884 M31933,50884 L29863,51426 M31933,50884 L41489,44072 M41489,44072 L33871,49938 M33871,49938 L31933,50884 M33871,49938 L41489,44072 M41489,44072 L43161,43226 M43161,43226 L33871,49938 M33871,49938 L43161,43226 M43161,43226 L35627,48609 M35627,48609 L33871,49938 M35627,48609 L43161,43226 M43161,43226 L44646,42005 M44646,42005 L35627,48609 M35627,48609 L44646,42005 M44646,42005 L37158,46932 M37158,46932 L35627,48609 M37158,46932 L44646,42005 M44646,42005 L45898,40449 M45898,40449 L37158,46932 M37158,46932 L45898,40449 M45898,40449 L38428,44947 M38428,44947 L37158,46932 M38428,44947 L45898,40449 M45898,40449 L46876,38608 M46876,38608 L38428,44947 M38428,44947 L46876,38608 M46876,38608 L39404,42702 M39404,42702 L38428,44947 M39404,42702 L46876,38608 M46876,38608 L47548,36541 M47548,36541 L39404,42702 M39404,42702 L47548,36541 M47548,36541 L40062,40255 M40062,40255 L39404,42702 M40062,40255 L47548,36541 M47548,36541 L47893,34314 M47893,34314 L40062,40255 M40062,40255 L47893,34314 M47893,34314 L40387,37663 M40387,37663 L40062,40255 M40387,37663 L47893,34314 M47893,34314 L47900,31998 M47900,31998 L40387,37663 M40387,37663 L47900,31998 M47900,31998 L40371,34993 M40371,34993 L40387,37663 M40371,34993 L47900,31998 M47900,31998 L40013,32308 M40013,32308 L40371,34993 M40013,32308 L47900,31998 M47900,31998 L47568,29670 M47568,29670 L40013,32308 M40013,32308 L47568,29670 M47568,29670 L39323,29676 M39323,29676 L40013,32308 M39323,29676 L47568,29670 M47568,29670 L46909,27402 M46909,27402 L39323,29676 M39323,29676 L46909,27402 M46909,27402 L38317,27161 M38317,27161 L39323,29676 M38317,27161 L46909,27402 M46909,27402 L45943,25268 M45943,25268 L38317,27161 M38317,27161 L45943,25268 M45943,25268 L37021,24825 M37021,24825 L38317,27161 M37021,24825 L45943,25268 M45943,25268 L44702,23337 M44702,23337 L37021,24825 M37021,24825 L44702,23337 M44702,23337 L35466,22725 M35466,22725 L37021,24825 M35466,22725 L44702,23337 M44702,23337 L43225,21671 M43225,21671 L35466,22725 M35466,22725 L43225,21671 M43225,21671 L33690,20914 M33690,20914 L35466,22725 M33690,20914 L43225,21671 M43225,21671 L41560,20323 M41560,20323 L33690,20914 M33690,20914 L41560,20323 M41560,20323 L31738,19436 M31738,19436 L33690,20914 M31738,19436 L41560,20323 M41560,20323 L39760,19336 M39760,19336 L31738,19436 M31738,19436 L39760,19336 M39760,19336 L29657,18327 M29657,18327 L31738,19436 M29657,18327 L39760,19336 M39760,19336 L27499,17614 M27499,17614 L29657,18327 M27499,17614 L39760,19336 M39760,19336 L37884,18743 M37884,18743 L27499,17614 M27499,17614 L37884,18743 M37884,18743 L25317,17316 M25317,17316 L27499,17614 M25317,17316 L37884,18743 M37884,18743 L35991,18562 M35991,18562 L25317,17316 M25317,17316 L35991,18562 M35991,18562 L23164,17439 M23164,17439 L25317,17316 M23164,17439 L35991,18562 M35991,18562 L34142,18800 M34142,18800 L23164,17439 M23164,17439 L34142,18800 M34142,18800 L21093,17980 M21093,17980 L23164,17439 M21093,17980 L34142,18800 M34142,18800 L32398,19447 M32398,19447 L21093,17980 M21093,17980 L32398,19447 M32398,19447 L19156,18927 M19156,18927 L21093,17980 M19156,18927 L32398,19447 M32398,19447 L30813,20485 M30813,20485 L19156,18927 M19156,18927 L30813,20485 M30813,20485 L17400,20255 M17400,20255 L19156,18927 M17400,20255 L30813,20485 M30813,20485 L29439,21879 M29439,21879 L17400,20255 M17400,20255 L29439,21879 M29439,21879 L15868,21933 M15868,21933 L17400,20255 M15868,21933 L29439,21879 M29439,21879 L28320,23584 M28320,23584 L15868,21933 M28320,23584 L13623,26162 M13623,26162 L14599,23918 M14599,23918 L28320,23584 M28320,23584 L14599,23918 M14599,23918 L15868,21933 M15868,21933 L28320,23584 M14599,23918 L13623,26162 M13623,26162 L37158,46932 M37158,46932 L14599,23918 M37158,46932 L13623,26162 M13623,26162 L35627,48609 M35627,48609 L37158,46932 M35627,48609 L13623,26162 M13623,26162 L12964,28610 M12964,28610 L35627,48609 M35627,48609 L12964,28610 M12964,28610 L33871,49938 M33871,49938 L35627,48609 M33871,49938 L12964,28610 M12964,28610 L12639,31201 M12639,31201 L33871,49938 M33871,49938 L12639,31201 M12639,31201 L31933,50884 M31933,50884 L33871,49938 M31933,50884 L12639,31201 M12639,31201 L12656,33872 M12656,33872 L31933,50884 M31933,50884 L12656,33872 M12656,33872 L29863,51426 M29863,51426 L31933,50884 M29863,51426 L12656,33872 M12656,33872 L13013,36556 M13013,36556 L29863,51426 M29863,51426 L13013,36556 M13013,36556 L27710,51549 M27710,51549 L29863,51426 M27710,51549 L13013,36556 M13013,36556 L13704,39188 M13704,39188 L27710,51549 M27710,51549 L13704,39188 M13704,39188 L25527,51250 M25527,51250 L27710,51549 M25527,51250 L13704,39188 M13704,39188 L14709,41703 M14709,41703 L25527,51250 M25527,51250 L14709,41703 M14709,41703 L23369,50538 M23369,50538 L25527,51250 M23369,50538 L14709,41703 M14709,41703 L16006,44039 M16006,44039 L23369,50538 M23369,50538 L16006,44039 M16006,44039 L21288,49429 M21288,49429 L23369,50538 M21288,49429 L16006,44039 M16006,44039 L17561,46139 M17561,46139 L21288,49429 M21288,49429 L17561,46139 M17561,46139 L19336,47950 M19336,47950 L21288,49429 M14599,23918 L37158,46932 M37158,46932 L38428,44947 M38428,44947 L14599,23918 M14599,23918 L38428,44947 M38428,44947 L15868,21933 M15868,21933 L14599,23918 M15868,21933 L38428,44947 M38428,44947 L39404,42702 M39404,42702 L15868,21933 M15868,21933 L39404,42702 M39404,42702 L17400,20255 M17400,20255 L15868,21933 M17400,20255 L39404,42702 M39404,42702 L40062,40255 M40062,40255 L17400,20255 M17400,20255 L40062,40255 M40062,40255 L19156,18927 M19156,18927 L17400,20255 M19156,18927 L40062,40255 M40062,40255 L40387,37663 M40387,37663 L19156,18927 M19156,18927 L40387,37663 M40387,37663 L21093,17980 M21093,17980 L19156,18927 M21093,17980 L40387,37663 M40387,37663 L40371,34993 M40371,34993 L21093,17980 M21093,17980 L40371,34993 M40371,34993 L23164,17439 M23164,17439 L21093,17980 M23164,17439 L40371,34993 M40371,34993 L40013,32308 M40013,32308 L23164,17439 M23164,17439 L40013,32308 M40013,32308 L25317,17316 M25317,17316 L23164,17439 M25317,17316 L40013,32308 M40013,32308 L39323,29676 M39323,29676 L25317,17316 M25317,17316 L39323,29676 M39323,29676 L27499,17614 M27499,17614 L25317,17316 M27499,17614 L39323,29676 M39323,29676 L38317,27161 M38317,27161 L27499,17614 M27499,17614 L38317,27161 M38317,27161 L29657,18327 M29657,18327 L27499,17614 M29657,18327 L38317,27161 M38317,27161 L37021,24825 M37021,24825 L29657,18327 M29657,18327 L37021,24825 M37021,24825 L31738,19436 M31738,19436 L29657,18327 M31738,19436 L37021,24825 M37021,24825 L35466,22725 M35466,22725 L31738,19436 M31738,19436 L35466,22725 M35466,22725 L33690,20914 M33690,20914 L31738,19436 M13806,23590 L12813,25863 M12813,25863 L13229,25837 M13229,25837 L13806,23590 M13229,25837 L12813,25863 M12813,25863 L12554,28295 M12554,28295 L13229,25837 M12554,28295 L12813,25863 M12813,25863 L12133,28338 M12133,28338 L12554,28295 M12554,28295 L12133,28338 M12133,28338 L12206,30898 M12206,30898 L12554,28295 M12206,30898 L12133,28338 M12133,28338 L11782,30959 M11782,30959 L12206,30898 M12206,30898 L11782,30959 M11782,30959 L12193,33583 M12193,33583 L12206,30898 M12193,33583 L11782,30959 M11782,30959 L11769,33662 M11769,33662 L12193,33583 M12193,33583 L11769,33662 M11769,33662 L12516,36288 M12516,36288 L12193,33583 M12516,36288 L11769,33662 M11769,33662 L12094,36386 M12094,36386 L12516,36288 M12516,36288 L12094,36386 M12094,36386 L13167,38950 M13167,38950 L12516,36288 M13167,38950 L12094,36386 M12094,36386 L12750,39066 M12750,39066 L13167,38950 M13167,38950 L12750,39066 M12750,39066 L14131,41505 M14131,41505 L13167,38950 M14131,41505 L12750,39066 M12750,39066 L13720,41640 M13720,41640 L14131,41505 M14131,41505 L13720,41640 M13720,41640 L15385,43895 M15385,43895 L14131,41505 M15385,43895 L13720,41640 M13720,41640 L14983,44046 M14983,44046 L15385,43895 M15385,43895 L14983,44046 M14983,44046 L16900,46063 M16900,46063 L15385,43895 M16900,46063 L14983,44046 M14983,44046 L16508,46229 M16508,46229 L16900,46063 M16900,46063 L16508,46229 M16508,46229 L18640,47959 M18640,47959 L16900,46063 M18640,47959 L16508,46229 M16508,46229 L18261,48138 M18261,48138 L18640,47959 M18640,47959 L18261,48138 M18261,48138 L20565,49537 M20565,49537 L18640,47959 M20565,49537 L18261,48138 M18261,48138 L20199,49727 M20199,49727 L20565,49537 M20565,49537 L20199,49727 M20199,49727 L22629,50761 M22629,50761 L20565,49537 M22629,50761 L20199,49727 M20199,49727 L22277,50960 M22277,50960 L22629,50761 M22629,50761 L22277,50960 M22277,50960 L24784,51603 M24784,51603 L22629,50761 M24784,51603 L22277,50960 M22277,50960 L24448,51808 M24448,51808 L24784,51603 M24784,51603 L24448,51808 M24448,51808 L26980,52042 M26980,52042 L24784,51603 M26980,52042 L24448,51808 M24448,51808 L26659,52250 M26659,52250 L26980,52042 M26980,52042 L26659,52250 M26659,52250 L29165,52069 M29165,52069 L26980,52042 M29165,52069 L26659,52250 M26659,52250 L28859,52277 M28859,52277 L29165,52069 M29165,52069 L28859,52277 M28859,52277 L31287,51682 M31287,51682 L29165,52069 M31287,51682 L28859,52277 M28859,52277 L30996,51887 M30996,51887 L31287,51682 M31287,51682 L30996,51887 M30996,51887 L33298,50890 M33298,50890 L31287,51682 M33298,50890 L30996,51887 M30996,51887 L33021,51090 M33021,51090 L33298,50890 M33298,50890 L33021,51090 M33021,51090 L35150,49713 M35150,49713 L33298,50890 M35150,49713 L33021,51090 M33021,51090 L34885,49905 M34885,49905 L35150,49713 M35150,49713 L34885,49905 M34885,49905 L36799,48178 M36799,48178 L35150,49713 M36799,48178 L34885,49905 M34885,49905 L36546,48359 M36546,48359 L36799,48178 M36799,48178 L36546,48359 M36546,48359 L38207,46321 M38207,46321 L36799,48178 M38207,46321 L36546,48359 M36546,48359 L37964,46489 M37964,46489 L38207,46321 M38207,46321 L37964,46489 M37964,46489 L39341,44184 M39341,44184 L38207,46321 M39341,44184 L37964,46489 M37964,46489 L39106,44338 M39106,44338 L39341,44184 M39341,44184 L39106,44338 M39106,44338 L40175,41820 M40175,41820 L39341,44184 M40175,41820 L39106,44338 M39106,44338 L39945,41957 M39945,41957 L40175,41820 M40175,41820 L39945,41957 M39945,41957 L40688,39282 M40688,39282 L40175,41820 M40688,39282 L39945,41957 M39945,41957 L40462,39401 M40462,39401 L40688,39282 M40688,39282 L40462,39401 M40462,39401 L40869,36630 M40869,36630 L40688,39282 M40869,36630 L40462,39401 M40462,39401 L40644,36731 M40644,36731 L40869,36630 M40869,36630 L40644,36731 M40644,36731 L40713,33927 M40713,33927 L40869,36630 M40713,33927 L40644,36731 M40644,36731 L40488,34009 M40488,34009 L40713,33927 M40713,33927 L40488,34009 M40488,34009 L40225,31236 M40225,31236 L40713,33927 M40225,31236 L40488,34009 M40488,34009 L39996,31299 M39996,31299 L40225,31236 M40225,31236 L39996,31299 M39996,31299 L39415,28620 M39415,28620 L40225,31236 M39415,28620 L39996,31299 M39996,31299 L39181,28665 M39181,28665 L39415,28620 M39415,28620 L39181,28665 M39181,28665 L38303,26140 M38303,26140 L39415,28620 M38303,26140 L39181,28665 M39181,28665 L38061,26168 M38061,26168 L38303,26140 M38303,26140 L38061,26168 M38061,26168 L36915,23854 M36915,23854 L38303,26140 M36915,23854 L38061,26168 M38061,26168 L36663,23866 M36663,23866 L36915,23854 M36915,23854 L36663,23866 M36663,23866 L35282,21816 M35282,21816 L36915,23854 M35282,21816 L36663,23866 M36663,23866 L35019,21814 M35019,21814 L35282,21816 M35282,21816 L35019,21814 M35019,21814 L33445,20074 M33445,20074 L35282,21816 M33445,20074 L35019,21814 M35019,21814 L33168,20060 M33168,20060 L33445,20074 M33445,20074 L33168,20060 M33168,20060 L31444,18669 M31444,18669 L33445,20074 M31444,18669 L33168,20060 M33168,20060 L31154,18645 M31154,18645 L31444,18669 M31444,18669 L31154,18645 M31154,18645 L29328,17633 M29328,17633 L31444,18669 M29328,17633 L31154,18645 M31154,18645 L29024,17601 M29024,17601 L29328,17633 M29328,17633 L29024,17601 M29024,17601 L27146,16991 M27146,16991 L29328,17633 M27146,16991 L29024,17601 M29024,17601 L26827,16955 M26827,16955 L27146,16991 M27146,16991 L26827,16955 M26827,16955 L24950,16757 M24950,16757 L27146,16991 M24950,16757 L26827,16955 M26827,16955 L24615,16720 M24615,16720 L24950,16757 M24950,16757 L24615,16720 M24615,16720 L22790,16938 M22790,16938 L24950,16757 M22790,16938 L24615,16720 M24615,16720 L22439,16902 M22439,16902 L22790,16938 M22790,16938 L22439,16902 M22439,16902 L20717,17529 M20717,17529 L22790,16938 M20717,17529 L22439,16902 M22439,16902 L20352,17497 M20352,17497 L20717,17529 M20717,17529 L20352,17497 M20352,17497 L18780,18516 M18780,18516 L20717,17529 M18780,18516 L20352,17497 M20352,17497 L18402,18491 M18402,18491 L18780,18516 M18780,18516 L18402,18491 M18402,18491 L17024,19876 M17024,19876 L18780,18516 M17024,19876 L18402,18491 M18402,18491 L16634,19860 M16634,19860 L17024,19876 M17024,19876 L16634,19860 M16634,19860 L15491,21577 M15491,21577 L17024,19876 M15491,21577 L16634,19860 M16634,19860 L15090,21573 M15090,21573 L15491,21577 M15491,21577 L15090,21573 M15090,21573 L14216,23580 M14216,23580 L15491,21577 M14216,23580 L15090,21573 M15090,21573 L13806,23590 M13806,23590 L14216,23580 M13806,23590 L13229,25837 M13229,25837 L14216,23580 M14216,23580 L13806,23590 " style="stroke:#000000; fill:None;"/>
<path d="M15491,21577 L14216,23580 M14216,23580 L27937,23246 M27937,23246 L15491,21577 M15491,21577 L27937,23246 M27937,23246 L29067,21514 M29067,21514 L15491,21577 M15491,21577 L29067,21514 M29067,21514 L17024,19876 M17024,19876 L15491,21577 M17024,19876 L29067,21514 M29067,21514 L30450,20087 M30450,20087 L17024,19876 M17024,19876 L30450,20087 M30450,20087 L18780,18516 M18780,18516 L17024,19876 M18780,18516 L30450,20087 M30450,20087 L32043,19010 M32043,19010 L18780,18516 M18780,18516 L32043,19010 M32043,19010 L20717,17529 M20717,17529 L18780,18516 M20717,17529 L32043,19010 M32043,19010 L33797,18314 M33797,18314 L20717,17529 M20717,17529 L33797,18314 M33797,18314 L22790,16938 M22790,16938 L20717,17529 M22790,16938 L33797,18314 M33797,18314 L35661,18021 M35661,18021 L22790,16938 M22790,16938 L35661,18021 M35661,18021 L24950,16757 M24950,16757 L22790,16938 M24950,16757 L35661,18021 M35661,18021 L37576,18139 M37576,18139 L24950,16757 M24950,16757 L37576,18139 M37576,18139 L27146,16991 M27146,16991 L24950,16757 M27146,16991 L37576,18139 M37576,18139 L39485,18666 M39485,18666 L27146,16991 M27146,16991 L39485,18666 M39485,18666 L29328,17633 M29328,17633 L27146,16991 M29328,17633 L39485,18666 M39485,18666 L31444,18669 M31444,18669 L29328,17633 M31444,18669 L39485,18666 M39485,18666 L41330,19585 M41330,19585 L31444,18669 M31444,18669 L41330,19585 M41330,19585 L33445,20074 M33445,20074 L31444,18669 M33445,20074 L41330,19585 M41330,19585 L43055,20868 M43055,20868 L33445,20074 M33445,20074 L43055,20868 M43055,20868 L35282,21816 M35282,21816 L33445,20074 M35282,21816 L43055,20868 M43055,20868 L44607,22476 M44607,22476 L35282,21816 M35282,21816 L44607,22476 M44607,22476 L36915,23854 M36915,23854 L35282,21816 M36915,23854 L44607,22476 M44607,22476 L45939,24361 M45939,24361 L36915,23854 M36915,23854 L45939,24361 M45939,24361 L38303,26140 M38303,26140 L36915,23854 M38303,26140 L45939,24361 M45939,24361 L47011,26465 M47011,26465 L38303,26140 M38303,26140 L47011,26465 M47011,26465 L39415,28620 M39415,28620 L38303,26140 M39415,28620 L47011,26465 M47011,26465 L47790,28724 M47790,28724 L39415,28620 M39415,28620 L47790,28724 M47790,28724 L40225,31236 M40225,31236 L39415,28620 M40225,31236 L47790,28724 M47790,28724 L48252,31070 M48252,31070 L40225,31236 M40225,31236 L48252,31070 M48252,31070 L40713,33927 M40713,33927 L40225,31236 M40713,33927 L48252,31070 M48252,31070 L40869,36630 M40869,36630 L40713,33927 M40869,36630 L48252,31070 M48252,31070 L48384,33431 M48384,33431 L40869,36630 M40869,36630 L48384,33431 M48384,33431 L40688,39282 M40688,39282 L40869,36630 M40688,39282 L48384,33431 M48384,33431 L48181,35735 M48181,35735 L40688,39282 M40688,39282 L48181,35735 M48181,35735 L40175,41820 M40175,41820 L40688,39282 M40175,41820 L48181,35735 M48181,35735 L47650,37913 M47650,37913 L40175,41820 M40175,41820 L47650,37913 M47650,37913 L39341,44184 M39341,44184 L40175,41820 M39341,44184 L47650,37913 M47650,37913 L46806,39898 M46806,39898 L39341,44184 M39341,44184 L46806,39898 M46806,39898 L38207,46321 M38207,46321 L39341,44184 M38207,46321 L46806,39898 M46806,39898 L45676,41631 M45676,41631 L38207,46321 M38207,46321 L45676,41631 M45676,41631 L36799,48178 M36799,48178 L38207,46321 M36799,48178 L45676,41631 M45676,41631 L44293,43058 M44293,43058 L36799,48178 M36799,48178 L44293,43058 M44293,43058 L35150,49713 M35150,49713 L36799,48178 M35150,49713 L44293,43058 M44293,43058 L42700,44135 M42700,44135 L35150,49713 M35150,49713 L42700,44135 M42700,44135 L33298,50890 M33298,50890 L35150,49713 M33298,50890 L42700,44135 M42700,44135 L40946,44831 M40946,44831 L33298,50890 M33298,50890 L40946,44831 M40946,44831 L31287,51682 M31287,51682 L33298,50890 M31287,51682 L40946,44831 M40946,44831 L29165,52069 M29165,52069 L31287,51682 M29165,52069 L40946,44831 M40946,44831 L39082,45124 M39082,45124 L29165,52069 M29165,52069 L39082,45124 M39082,45124 L26980,52042 M26980,52042 L29165,52069 M26980,52042 L39082,45124 M39082,45124 L37167,45006 M37167,45006 L26980,52042 M26980,52042 L37167,45006 M37167,45006 L24784,51603 M24784,51603 L26980,52042 M24784,51603 L37167,45006 M37167,45006 L35258,44479 M35258,44479 L24784,51603 M24784,51603 L35258,44479 M35258,44479 L22629,50761 M22629,50761 L24784,51603 M22629,50761 L35258,44479 M35258,44479 L33413,43560 M33413,43560 L22629,50761 M22629,50761 L33413,43560 M33413,43560 L20565,49537 M20565,49537 L22629,50761 M20565,49537 L33413,43560 M33413,43560 L31688,42277 M31688,42277 L20565,49537 M20565,49537 L31688,42277 M31688,42277 L18640,47959 M18640,47959 L20565,49537 M18640,47959 L31688,42277 M31688,42277 L30136,40669 M30136,40669 L18640,47959 M18640,47959 L30136,40669 M30136,40669 L16900,46063 M16900,46063 L18640,47959 M16900,46063 L30136,40669 M30136,40669 L28804,38784 M28804,38784 L16900,46063 M16900,46063 L28804,38784 M28804,38784 L15385,43895 M15385,43895 L16900,46063 M15385,43895 L28804,38784 M28804,38784 L14131,41505 M14131,41505 L15385,43895 M14131,41505 L28804,38784 M28804,38784 L27732,36680 M27732,36680 L14131,41505 M14131,41505 L27732,36680 M27732,36680 L13167,38950 M13167,38950 L14131,41505 M13167,38950 L27732,36680 M27732,36680 L26953,34421 M26953,34421 L13167,38950 M13167,38950 L26953,34421 M26953,34421 L12516,36288 M12516,36288 L13167,38950 M12516,36288 L26953,34421 M26953,34421 L26491,32075 M26491,32075 L12516,36288 M12516,36288 L26491,32075 M26491,32075 L12193,33583 M12193,33583 L12516,36288 M12193,33583 L26491,32075 M26491,32075 L26359,29714 M26359,29714 L12193,33583 M12193,33583 L26359,29714 M26359,29714 L12206,30898 M12206,30898 L12193,33583 M12206,30898 L26359,29714 M26359,29714 L26562,27410 M26562,27410 L12206,30898 M12206,30898 L26562,27410 M26562,27410 L12554,28295 M12554,28295 L12206,30898 M12554,28295 L26562,27410 M26562,27410 L27093,25232 M27093,25232 L12554,28295 M12554,28295 L27093,25232 M27093,25232 L13229,25837 M13229,25837 L12554,28295 M13229,25837 L27093,25232 M27093,25232 L27937,23246 M27937,23246 L13229,25837 M27937,23246 L14216,23580 M14216,23580 L13229,25837 M13229,25837 L27937,23246 " style="stroke:#000000; fill:None;"/>
<path d="M12813,25863 L13806,23590 M13806,23590 L33021,51090 M33021,51090 L12813,25863 M33021,51090 L13806,23590 M13806,23590 L15090,21573 M15090,21573 L33021,51090 M33021,51090 L15090,21573 M15090,21573 L16634,19860 M16634,19860 L33021,51090 M33021,51090 L16634,19860 M16634,19860 L18402,18491 M18402,18491 L33021,51090 M33021,51090 L18402,18491 M18402,18491 L20352,17497 M20352,17497 L33021,51090 M33021,51090 L20352,17497 M20352,17497 L22439,16902 M22439,16902 L33021,51090 M33021,51090 L22439,16902 M22439,16902 L24615,16720 M24615,16720 L33021,51090 M33021,51090 L24615,16720 M24615,16720 L26827,16955 M26827,16955 L33021,51090 M33021,51090 L26827,16955 M26827,16955 L29024,17601 M29024,17601 L33021,51090 M33021,51090 L29024,17601 M29024,17601 L31154,18645 M31154,18645 L33021,51090 M33021,51090 L31154,18645 M31154,18645 L33168,20060 M33168,20060 L33021,51090 M33021,51090 L33168,20060 M33168,20060 L35019,21814 M35019,21814 L33021,51090 M33021,51090 L35019,21814 M35019,21814 L34885,49905 M34885,49905 L33021,51090 M34885,49905 L35019,21814 M35019,21814 L36663,23866 M36663,23866 L34885,49905 M34885,49905 L36663,23866 M36663,23866 L38061,26168 M38061,26168 L34885,49905 M34885,49905 L38061,26168 M38061,26168 L39181,28665 M39181,28665 L34885,49905 M34885,49905 L39181,28665 M39181,28665 L39996,31299 M39996,31299 L34885,49905 M34885,49905 L39996,31299 M39996,31299 L40488,34009 M40488,34009 L34885,49905 M34885,49905 L40488,34009 M40488,34009 L40644,36731 M40644,36731 L34885,49905 M34885,49905 L40644,36731 M40644,36731 L40462,39401 M40462,39401 L34885,49905 M34885,49905 L40462,39401 M40462,39401 L36546,48359 M36546,48359 L34885,49905 M36546,48359 L40462,39401 M40462,39401 L39945,41957 M39945,41957 L36546,48359 M36546,48359 L39945,41957 M39945,41957 L37964,46489 M37964,46489 L36546,48359 M37964,46489 L39945,41957 M39945,41957 L39106,44338 M39106,44338 L37964,46489 M12813,25863 L33021,51090 M33021,51090 L12133,28338 M12133,28338 L12813,25863 M12133,28338 L33021,51090 M33021,51090 L11782,30959 M11782,30959 L12133,28338 M11782,30959 L33021,51090 M33021,51090 L11769,33662 M11769,33662 L11782,30959 M11769,33662 L33021,51090 M33021,51090 L30996,51887 M30996,51887 L11769,33662 M11769,33662 L30996,51887 M30996,51887 L12094,36386 M12094,36386 L11769,33662 M12094,36386 L30996,51887 M30996,51887 L28859,52277 M28859,52277 L12094,36386 M12094,36386 L28859,52277 M28859,52277 L12750,39066 M12750,39066 L12094,36386 M12750,39066 L28859,52277 M28859,52277 L26659,52250 M26659,52250 L12750,39066 M12750,39066 L26659,52250 M26659,52250 L13720,41640 M13720,41640 L12750,39066 M13720,41640 L26659,52250 M26659,52250 L24448,51808 M24448,51808 L13720,41640 M13720,41640 L24448,51808 M24448,51808 L14983,44046 M14983,44046 L13720,41640 M14983,44046 L24448,51808 M24448,51808 L22277,50960 M22277,50960 L14983,44046 M14983,44046 L22277,50960 M22277,50960 L16508,46229 M16508,46229 L14983,44046 M16508,46229 L22277,50960 M22277,50960 L20199,49727 M20199,49727 L16508,46229 M16508,46229 L20199,49727 M20199,49727 L18261,48138 M18261,48138 L16508,46229 " style="stroke:#000000; fill:None;"/>
<path d="M28320,23584 L27491,25546 M27491,25546 L13623,26162 M13623,26162 L28320,23584 M13623,26162 L27491,25546 M27491,25546 L12964,28610 M12964,28610 L13623,26162 M12964,28610 L27491,25546 M27491,25546 L26981,27702 M26981,27702 L12964,28610 M12964,28610 L26981,27702 M26981,27702 L12639,31201 M12639,31201 L12964,28610 M12639,31201 L26981,27702 M26981,27702 L26804,29983 M26804,29983 L12639,31201 M12639,31201 L26804,29983 M26804,29983 L12656,33872 M12656,33872 L12639,31201 M12656,33872 L26804,29983 M26804,29983 L26967,32314 M26967,32314 L12656,33872 M12656,33872 L26967,32314 M26967,32314 L13013,36556 M13013,36556 L12656,33872 M13013,36556 L26967,32314 M26967,32314 L27465,34622 M27465,34622 L13013,36556 M13013,36556 L27465,34622 M27465,34622 L13704,39188 M13704,39188 L13013,36556 M13704,39188 L27465,34622 M27465,34622 L28280,36831 M28280,36831 L13704,39188 M13704,39188 L28280,36831 M28280,36831 L14709,41703 M14709,41703 L13704,39188 M14709,41703 L28280,36831 M28280,36831 L29388,38872 M29388,38872 L14709,41703 M14709,41703 L29388,38872 M29388,38872 L16006,44039 M16006,44039 L14709,41703 M16006,44039 L29388,38872 M29388,38872 L17561,46139 M17561,46139 L16006,44039 M17561,46139 L29388,38872 M29388,38872 L30753,40677 M30753,40677 L17561,46139 M17561,46139 L30753,40677 M30753,40677 L19336,47950 M19336,47950 L17561,46139 M19336,47950 L30753,40677 M30753,40677 L32330,42191 M32330,42191 L19336,47950 M19336,47950 L32330,42191 M32330,42191 L21288,49429 M21288,49429 L19336,47950 M21288,49429 L32330,42191 M32330,42191 L34070,43363 M34070,43363 L21288,49429 M21288,49429 L34070,43363 M34070,43363 L23369,50538 M23369,50538 L21288,49429 M23369,50538 L34070,43363 M34070,43363 L35915,44156 M35915,44156 L23369,50538 M23369,50538 L35915,44156 M35915,44156 L25527,51250 M25527,51250 L23369,50538 M25527,51250 L35915,44156 M35915,44156 L37807,44544 M37807,44544 L25527,51250 M25527,51250 L37807,44544 M37807,44544 L27710,51549 M27710,51549 L25527,51250 M27710,51549 L37807,44544 M37807,44544 L39686,44516 M39686,44516 L27710,51549 M27710,51549 L39686,44516 M39686,44516 L29863,51426 M29863,51426 L27710,51549 M29863,51426 L39686,44516 M39686,44516 L41489,44072 M41489,44072 L29863,51426 M29863,51426 L41489,44072 M41489,44072 L31933,50884 M31933,50884 L29863,51426 M31933,50884 L41489,44072 M41489,44072 L33871,49938 M33871,49938 L31933,50884 M33871,49938 L41489,44072 M41489,44072 L43161,43226 M43161,43226 L33871,49938 M33871,49938 L43161,43226 M43161,43226 L35627,48609 M35627,48609 L33871,49938 M35627,48609 L43161,43226 M43161,43226 L44646,42005 M44646,42005 L35627,48609 M35627,48609 L44646,42005 M44646,42005 L37158,46932 M37158,46932 L35627,48609 M37158,46932 L44646,42005 M44646,42005 L45898,40449 M45898,40449 L37158,46932 M37158,46932 L45898,40449 M45898,40449 L38428,44947 M38428,44947 L37158,46932 M38428,44947 L45898,40449 M45898,40449 L46876,38608 M46876,38608 L38428,44947 M38428,44947 L46876,38608 M46876,38608 L39404,42702 M39404,42702 L38428,44947 M39404,42702 L46876,38608 M46876,38608 L47548,36541 M47548,36541 L39404,42702 M39404,42702 L47548,36541 M47548,36541 L40062,40255 M40062,40255 L39404,42702 M40062,40255 L47548,36541 M47548,36541 L47893,34314 M47893,34314 L40062,40255 M40062,40255 L47893,34314 M47893,34314 L40387,37663 M40387,37663 L40062,40255 M40387,37663 L47893,34314 M47893,34314 L47900,31998 M47900,31998 L40387,37663 M40387,37663 L47900,31998 M47900,31998 L40371,34993 M40371,34993 L40387,37663 M40371,34993 L47900,31998 M47900,31998 L40013,32308 M40013,32308 L40371,34993 M40013,32308 L47900,31998 M47900,31998 L47568,29670 M47568,29670 L40013,32308 M40013,32308 L47568,29670 M47568,29670 L39323,29676 M39323,29676 L40013,32308 M39323,29676 L47568,29670 M47568,29670 L46909,27402 M46909,27402 L39323,29676 M39323,29676 L46909,27402 M46909,27402 L38317,27161 M38317,27161 L39323,29676 M38317,27161 L46909,27402 M46909,27402 L45943,25268 M45943,25268 L38317,27161 M38317,27161 L45943,25268 M45943,25268 L37021,24825 M37021,24825 L38317,27161 M37021,24825 L45943,25268 M45943,25268 L44702,23337 M44702,23337 L37021,24825 M37021,24825 L44702,23337 M44702,23337 L35466,22725 M35466,22725 L37021,24825 M35466,22725 L44702,23337 M44702,23337 L43225,21671 M43225,21671 L35466,22725 M35466,22725 L43225,21671 M43225,21671 L33690,20914 M33690,20914 L35466,22725 M33690,20914 L43225,21671 M43225,21671 L41560,20323 M41560,20323 L33690,20914 M33690,20914 L41560,20323 M41560,20323 L31738,19436 M31738,19436 L33690,20914 M31738,19436 L41560,20323 M41560,20323 L39760,19336 M39760,19336 L31738,19436 M31738,19436 L39760,19336 M39760,19336 L29657,18327 M29657,18327 L31738,19436 M29657,18327 L39760,19336 M39760,19336 L27499,17614 M27499,17614 L29657,18327 M27499,17614 L39760,19336 M39760,19336 L37884,18743 M37884,18743 L27499,17614 M27499,17614 L37884,18743 M37884,18743 L25317,17316 M25317,17316 L27499,17614 M25317,17316 L37884,18743 M37884,18743 L35991,18562 M35991,18562 L25317,17316 M25317,17316 L35991,18562 M35991,18562 L23164,17439 M23164,17439 L25317,17316 M23164,17439 L35991,18562 M35991,18562 L34142,18800 M34142,18800 L23164,17439 M23164,17439 L34142,18800 M34142,18800 L21093,17980 M21093,17980 L23164,17439 M21093,17980 L34142,18800 M34142,18800 L32398,19447 M32398,19447 L21093,17980 M21093,17980 L32398,19447 M32398,19447 L19156,18927 M19156,18927 L21093,17980 M19156,18927 L32398,19447 M32398,19447 L30813,20485 M30813,20485 L19156,18927 M19156,18927 L30813,20485 M30813,20485 L17400,20255 M17400,20255 L19156,18927 M17400,20255 L30813,20485 M30813,20485 L29439,21879 M29439,21879 L17400,20255 M17400,20255 L29439,21879 M29439,21879 L15868,21933 M15868,21933 L17400,20255 M15868,21933 L29439,21879 M29439,21879 L28320,23584 M28320,23584 L15868,21933 M28320,23584 L13623,26162 M13623,26162 L14599,23918 M14599,23918 L28320,23584 M28320,23584 L14599,23918 M14599,23918 L15868,21933 M15868,21933 L28320,23584 " style="stroke:#000000; fill:None;"/>
<path d="M14599,23918 L13623,26162 M13623,26162 L37158,46932 M37158,46932 L14599,23918 M37158,46932 L13623,26162 M13623,26162 L35627,48609 M35627,48609 L37158,46932 M35627,48609 L13623,26162 M13623,26162 L12964,28610 M12964,28610 L35627,48609 M35627,48609 L12964,28610 M12964,28610 L33871,49938 M33871,49938 L35627,48609 M33871,49938 L12964,28610 M12964,28610 L12639,31201 M12639,31201 L33871,49938 M33871,49938 L12639,31201 M12639,31201 L31933,50884 M31933,50884 L33871,49938 M31933,50884 L12639,31201 M12639,31201 L12656,33872 M12656,33872 L31933,50884 M31933,50884 L12656,33872 M12656,33872 L29863,51426 M29863,51426 L31933,50884 M29863,51426 L12656,33872 M12656,33872 L13013,36556 M13013,36556 L29863,51426 M29863,51426 L13013,36556 M13013,36556 L27710,51549 M27710,51549 L29863,51426 M27710,51549 L13013,36556 M13013,36556 L13704,39188 M13704,39188 L27710,51549 M27710,51549 L13704,39188 M13704,39188 L25527,51250 M25527,51250 L27710,51549 M25527,51250 L13704,39188 M13704,39188 L14709,41703 M14709,41703 L25527,51250 M25527,51250 L14709,41703 M14709,41703 L23369,50538 M23369,50538 L25527,51250 M23369,50538 L14709,41703 M14709,41703 L16006,44039 M16006,44039 L23369,50538 M23369,50538 L16006,44039 M16006,44039 L21288,49429 M21288,49429 L23369,50538 M21288,49429 L16006,44039 M16006,44039 L17561,46139 M17561,46139 L21288,49429 M21288,49429 L17561,46139 M17561,46139 L19336,47950 M19336,47950 L21288,49429 M14599,23918 L37158,46932 M37158,46932 L38428,44947 M38428,44947 L14599,23918 M14599,23918 L38428,44947 M38428,44947 L15868,21933 M15868,21933 L14599,23918 M15868,21933 L38428,44947 M38428,44947 L39404,42702 M39404,42702 L15868,21933 M15868,21933 L39404,42702 M39404,42702 L17400,20255 M17400,20255 L15868,21933 M17400,20255 L39404,42702 M39404,42702 L40062,40255 M40062,40255 L17400,20255 M17400,20255 L40062,40255 M40062,40255 L19156,18927 M19156,18927 L17400,20255 M19156,18927 L40062,40255 M40062,40255 L40387,37663 M40387,37663 L19156,18927 M19156,18927 L40387,37663 M40387,37663 L21093,17980 M21093,17980 L19156,18927 M21093,17980 L40387,37663 M40387,37663 L40371,34993 M40371,34993 L21093,17980 M21093,17980 L40371,34993 M40371,34993 L23164,17439 M23164,17439 L21093,17980 M23164,17439 L40371,34993 M40371,34993 L40013,32308 M40013,32308 L23164,17439 M23164,17439 L40013,32308 M40013,32308 L25317,17316 M25317,17316 L23164,17439 M25317,17316 L40013,32308 M40013,32308 L39323,29676 M39323,29676 L25317,17316 M25317,17316 L39323,29676 M39323,29676 L27499,17614 M27499,17614 L25317,17316 M27499,17614 L39323,29676 M39323,29676 L38317,27161 M38317,27161 L27499,17614 M27499,17614 L38317,27161 M38317,27161 L29657,18327 M29657,18327 L27499,17614 M29657,18327 L38317,27161 M38317,27161 L37021,24825 M37021,24825 L29657,18327 M29657,18327 L37021,24825 M37021,24825 L31738,19436 M31738,19436 L29657,18327 M31738,19436 L37021,24825 M37021,24825 L35466,22725 M35466,22725 L31738,19436 M31738,19436 L35466,22725 M35466,22725 L33690,20914 M33690,20914 L31738,19436 " style="stroke:#000000; fill:None;"/>
<path d="M29067,21514 L27937,23246 M27937,23246 L28320,23584 M28320,23584 L29067,21514 M28320,23584 L27937,23246 M27937,23246 L27093,25232 M27093,25232 L28320,23584 M28320,23584 L27093,25232 M27093,25232 L27491,25546 M27491,25546 L28320,23584 M27491,25546 L27093,25232 M27093,25232 L26562,27410 M26562,27410 L27491,25546 M27491,25546 L26562,27410 M26562,27410 L26981,27702 M26981,27702 L27491,25546 M26981,27702 L26562,27410 M26562,27410 L26359,29714 M26359,29714 L26981,27702 M26981,27702 L26359,29714 M26359,29714 L26804,29983 M26804,29983 L26981,27702 M26804,29983 L26359,29714 M26359,29714 L26491,32075 M26491,32075 L26804,29983 M26804,29983 L26491,32075 M26491,32075 L26967,32314 M26967,32314 L26804,29983 M26967,32314 L26491,32075 M26491,32075 L26953,34421 M26953,34421 L26967,32314 M26967,32314 L26953,34421 M26953,34421 L27465,34622 M27465,34622 L26967,32314 M27465,34622 L26953,34421 M26953,34421 L27732,36680 M27732,36680 L27465,34622 M27465,34622 L27732,36680 M27732,36680 L28280,36831 M28280,36831 L27465,34622 M28280,36831 L27732,36680 M27732,36680 L28804,38784 M28804,38784 L28280,36831 M28280,36831 L28804,38784 M28804,38784 L29388,38872 M29388,38872 L28280,36831 M29388,38872 L28804,38784 M28804,38784 L30136,40669 M30136,40669 L29388,38872 M29388,38872 L30136,40669 M30136,40669 L30753,40677 M30753,40677 L29388,38872 M30753,40677 L30136,40669 M30136,40669 L31688,42277 M31688,42277 L30753,40677 M30753,40677 L31688,42277 M31688,42277 L32330,42191 M32330,42191 L30753,40677 M32330,42191 L31688,42277 M31688,42277 L33413,43560 M33413,43560 L32330,42191 M32330,42191 L33413,43560 M33413,43560 L34070,43363 M34070,43363 L32330,42191 M34070,43363 L33413,43560 M33413,43560 L35258,44479 M35258,44479 L34070,43363 M34070,43363 L35258,44479 M35258,44479 L35915,44156 M35915,44156 L34070,43363 M35915,44156 L35258,44479 M35258,44479 L37167,45006 M37167,45006 L35915,44156 M35915,44156 L37167,45006 M37167,45006 L37807,44544 M37807,44544 L35915,44156 M37807,44544 L37167,45006 M37167,45006 L39082,45124 M39082,45124 L37807,44544 M37807,44544 L39082,45124 M39082,45124 L39686,44516 M39686,44516 L37807,44544 M39686,44516 L39082,45124 M39082,45124 L40946,44831 M40946,44831 L39686,44516 M39686,44516 L40946,44831 M40946,44831 L41489,44072 M41489,44072 L39686,44516 M41489,44072 L40946,44831 M40946,44831 L42700,44135 M42700,44135 L41489,44072 M41489,44072 L42700,44135 M42700,44135 L43161,43226 M43161,43226 L41489,44072 M43161,43226 L42700,44135 M42700,44135 L44293,43058 M44293,43058 L43161,43226 M43161,43226 L44293,43058 M44293,43058 L44646,42005 M44646,42005 L43161,43226 M44646,42005 L44293,43058 M44293,43058 L45676,41631 M45676,41631 L44646,42005 M44646,42005 L45676,41631 M45676,41631 L45898,40449 M45898,40449 L44646,42005 M45898,40449 L45676,41631 M45676,41631 L46806,39898 M46806,39898 L45898,40449 M45898,40449 L46806,39898 M46806,39898 L46876,38608 M46876,38608 L45898,40449 M46876,38608 L46806,39898 M46806,39898 L47650,37913 M47650,37913 L46876,38608 M46876,38608 L47650,37913 M47650,37913 L47548,36541 M47548,36541 L46876,38608 M47548,36541 L47650,37913 M47650,37913 L48181,35735 M48181,35735 L47548,36541 M47548,36541 L48181,35735 M48181,35735 L47893,34314 M47893,34314 L47548,36541 M47893,34314 L48181,35735 M48181,35735 L48384,33431 M48384,33431 L47893,34314 M47893,34314 L48384,33431 M48384,33431 L47900,31998 M47900,31998 L47893,34314 M47900,31998 L48384,33431 M48384,33431 L48252,31070 M48252,31070 L47900,31998 M47900,31998 L48252,31070 M48252,31070 L47568,29670 M47568,29670 L47900,31998 M47568,29670 L48252,31070 M48252,31070 L47790,28724 M47790,28724 L47568,29670 M47568,29670 L47790,28724 M47790,28724 L46909,27402 M46909,27402 L47568,29670 M46909,27402 L47790,28724 M47790,28724 L47011,26465 M47011,26465 L46909,27402 M46909,27402 L47011,26465 M47011,26465 L45943,25268 M45943,25268 L46909,27402 M45943,25268 L47011,26465 M47011,26465 L45939,24361 M45939,24361 L45943,25268 M45943,25268 L45939,24361 M45939,24361 L44702,23337 M44702,23337 L45943,25268 M44702,23337 L45939,24361 M45939,24361 L44607,22476 M44607,22476 L44702,23337 M44702,23337 L44607,22476 M44607,22476 L43225,21671 M43225,21671 L44702,23337 M43225,21671 L44607,22476 M44607,22476 L43055,20868 M43055,20868 L43225,21671 M43225,21671 L43055,20868 M43055,20868 L41560,20323 M41560,20323 L43225,21671 M41560,20323 L43055,20868 M43055,20868 L41330,19585 M41330,19585 L41560,20323 M41560,20323 L41330,19585 M41330,19585 L39760,19336 M39760,19336 L41560,20323 M39760,19336 L41330,19585 M41330,19585 L39485,18666 M39485,18666 L39760,19336 M39760,19336 L39485,18666 M39485,18666 L37884,18743 M37884,18743 L39760,19336 M37884,18743 L39485,18666 M39485,18666 L37576,18139 M37576,18139 L37884,18743 M37884,18743 L37576,18139 M37576,18139 L35991,18562 M35991,18562 L37884,18743 M35991,18562 L37576,18139 M37576,18139 L35661,18021 M35661,18021 L35991,18562 M35991,18562 L35661,18021 M35661,18021 L34142,18800 M34142,18800 L35991,18562 M34142,18800 L35661,18021 M35661,18021 L33797,18314 M33797,18314 L34142,18800 M34142,18800 L33797,18314 M33797,18314 L32398,19447 M32398,19447 L34142,18800 M32398,19447 L33797,18314 M33797,18314 L32043,19010 M32043,19010 L32398,19447 M32398,19447 L32043,19010 M32043,19010 L30813,20485 M30813,20485 L32398,19447 M30813,20485 L32043,19010 M32043,19010 L30450,20087 M30450,20087 L30813,20485 M30813,20485 L30450,20087 M30450,20087 L29439,21879 M29439,21879 L30813,20485 M29439,21879 L30450,20087 M30450,20087 L29067,21514 M29067,21514 L29439,21879 M29439,21879 L29067,21514 M29067,21514 L28320,23584 M28320,23584 L29439,21879 " style="stroke:#000000; fill:None;"/>
<path d="M13806,23590 L12813,25863 M12813,25863 L13229,25837 M13229,25837 L13806,23590 M13229,25837 L12813,25863 M12813,25863 L12554,28295 M12554,28295 L13229,25837 M12554,28295 L12813,25863 M12813,25863 L12133,28338 M12133,28338 L12554,28295 M12554,28295 L12133,28338 M12133,28338 L12206,30898 M12206,30898 L12554,28295 M12206,30898 L12133,28338 M12133,28338 L11782,30959 M11782,30959 L12206,30898 M12206,30898 L11782,30959 M11782,30959 L12193,33583 M12193,33583 L12206,30898 M12193,33583 L11782,30959 M11782,30959 L11769,33662 M11769,33662 L12193,33583 M12193,33583 L11769,33662 M11769,33662 L12516,36288 M12516,36288 L12193,33583 M12516,36288 L11769,33662 M11769,33662 L12094,36386 M12094,36386 L12516,36288 M12516,36288 L12094,36386 M12094,36386 L13167,38950 M13167,38950 L12516,36288 M13167,38950 L12094,36386 M12094,36386 L12750,39066 M12750,39066 L13167,38950 M13167,38950 L12750,39066 M12750,39066 L14131,41505 M14131,41505 L13167,38950 M14131,41505 L12750,39066 M12750,39066 L13720,41640 M13720,41640 L14131,41505 M14131,41505 L13720,41640 M13720,41640 L15385,43895 M15385,43895 L14131,41505 M15385,43895 L13720,41640 M13720,41640 L14983,44046 M14983,44046 L15385,43895 M15385,43895 L14983,44046 M14983,44046 L16900,46063 M16900,46063 L15385,43895 M16900,46063 L14983,44046 M14983,44046 L16508,46229 M16508,46229 L16900,46063 M16900,46063 L16508,46229 M16508,46229 L18640,47959 M18640,47959 L16900,46063 M18640,47959 L16508,46229 M16508,46229 L18261,48138 M18261,48138 L18640,47959 M18640,47959 L18261,48138 M18261,48138 L20565,49537 M20565,49537 L18640,47959 M20565,49537 L18261,48138 M18261,48138 L20199,49727 M20199,49727 L20565,49537 M20565,49537 L20199,49727 M20199,49727 L22629,50761 M22629,50761 L20565,49537 M22629,50761 L20199,49727 M20199,49727 L22277,50960 M22277,50960 L22629,50761 M22629,50761 L22277,50960 M22277,50960 L24784,51603 M24784,51603 L22629,50761 M24784,51603 L22277,50960 M22277,50960 L24448,51808 M24448,51808 L24784,51603 M24784,51603 L24448,51808 M24448,51808 L26980,52042 M26980,52042 L24784,51603 M26980,52042 L24448,51808 M24448,51808 L26659,52250 M26659,52250 L26980,52042 M26980,52042 L26659,52250 M26659,52250 L29165,52069 M29165,52069 L26980,52042 M29165,52069 L26659,52250 M26659,52250 L28859,52277 M28859,52277 L29165,52069 M29165,52069 L28859,52277 M28859,52277 L31287,51682 M31287,51682 L29165,52069 M31287,51682 L28859,52277 M28859,52277 L30996,51887 M30996,51887 L31287,51682 M31287,51682 L30996,51887 M30996,51887 L33298,50890 M33298,50890 L31287,51682 M33298,50890 L30996,51887 M30996,51887 L33021,51090 M33021,51090 L33298,50890 M33298,50890 L33021,51090 M33021,51090 L35150,49713 M35150,49713 L33298,50890 M35150,49713 L33021,51090 M33021,51090 L34885,49905 M34885,49905 L35150,49713 M35150,49713 L34885,49905 M34885,49905 L36799,48178 M36799,48178 L35150,49713 M36799,48178 L34885,49905 M34885,49905 L36546,48359 M36546,48359 L36799,48178 M36799,48178 L36546,48359 M36546,48359 L38207,46321 M38207,46321 L36799,48178 M38207,46321 L36546,48359 M36546,48359 L37964,46489 M37964,46489 L38207,46321 M38207,46321 L37964,46489 M37964,46489 L39341,44184 M39341,44184 L38207,46321 M39341,44184 L37964,46489 M37964,46489 L39106,44338 M39106,44338 L39341,44184 M39341,44184 L39106,44338 M39106,44338 L40175,41820 M40175,41820 L39341,44184 M40175,41820 L39106,44338 M39106,44338 L39945,41957 M39945,41957 L40175,41820 M40175,41820 L39945,41957 M39945,41957 L40688,39282 M40688,39282 L40175,41820 M40688,39282 L39945,41957 M39945,41957 L40462,39401 M40462,39401 L40688,39282 M40688,39282 L40462,39401 M40462,39401 L40869,36630 M40869,36630 L40688,39282 M40869,36630 L40462,39401 M40462,39401 L40644,36731 M40644,36731 L40869,36630 M40869,36630 L40644,36731 M40644,36731 L40713,33927 M40713,33927 L40869,36630 M40713,33927 L40644,36731 M40644,36731 L40488,34009 M40488,34009 L40713,33927 M40713,33927 L40488,34009 M40488,34009 L40225,31236 M40225,31236 L40713,33927 M40225,31236 L40488,34009 M40488,34009 L39996,31299 M39996,31299 L40225,31236 M40225,31236 L39996,31299 M39996,31299 L39415,28620 M39415,28620 L40225,31236 M39415,28620 L39996,31299 M39996,31299 L39181,28665 M39181,28665 L39415,28620 M39415,28620 L39181,28665 M39181,28665 L38303,26140 M38303,26140 L39415,28620 M38303,26140 L39181,28665 M39181,28665 L38061,26168 M38061,26168 L38303,26140 M38303,26140 L38061,26168 M38061,26168 L36915,23854 M36915,23854 L38303,26140 M36915,23854 L38061,26168 M38061,26168 L36663,23866 M36663,23866 L36915,23854 M36915,23854 L36663,23866 M36663,23866 L35282,21816 M35282,21816 L36915,23854 M35282,21816 L36663,23866 M36663,23866 L35019,21814 M35019,21814 L35282,21816 M35282,21816 L35019,21814 M35019,21814 L33445,20074 M33445,20074 L35282,21816 M33445,20074 L35019,21814 M35019,21814 L33168,20060 M33168,20060 L33445,20074 M33445,20074 L33168,20060 M33168,20060 L31444,18669 M31444,18669 L33445,20074 M31444,18669 L33168,20060 M33168,20060 L31154,18645 M31154,18645 L31444,18669 M31444,18669 L31154,18645 M31154,18645 L29328,17633 M29328,17633 L31444,18669 M29328,17633 L31154,18645 M31154,18645 L29024,17601 M29024,17601 L29328,17633 M29328,17633 L29024,17601 M29024,17601 L27146,16991 M27146,16991 L29328,17633 M27146,16991 L29024,17601 M29024,17601 L26827,16955 M26827,16955 L27146,16991 M27146,16991 L26827,16955 M26827,16955 L24950,16757 M24950,16757 L27146,16991 M24950,16757 L26827,16955 M26827,16955 L24615,16720 M24615,16720 L24950,16757 M24950,16757 L24615,16720 M24615,16720 L22790,16938 M22790,16938 L24950,16757 M22790,16938 L24615,16720 M24615,16720 L22439,16902 M22439,16902 L22790,16938 M22790,16938 L22439,16902 M22439,16902 L20717,17529 M20717,17529 L22790,16938 M20717,17529 L22439,16902 M22439,16902 L20352,17497 M20352,17497 L20717,17529 M20717,17529 L20352,17497 M20352,17497 L18780,18516 M18780,18516 L20717,17529 M18780,18516 L20352,17497 M20352,17497 L18402,18491 M18402,18491 L18780,18516 M18780,18516 L18402,18491 M18402,18491 L17024,19876 M17024,19876 L18780,18516 M17024,19876 L18402,18491 M18402,18491 L16634,19860 M16634,19860 L17024,19876 M17024,19876 L16634,19860 M16634,19860 L15491,21577 M15491,21577 L17024,19876 M15491,21577 L16634,19860 M16634,19860 L15090,21573 M15090,21573 L15491,21577 M15491,21577 L15090,21573 M15090,21573 L14216,23580 M14216,23580 L15491,21577 M14216,23580 L15090,21573 M15090,21573 L13806,23590 M13806,23590 L14216,23580 M13806,23590 L13229,25837 M13229,25837 L14216,23580 M14216,23580 L13806,23590 " style="stroke:#000000; fill:None;"/>
<path d="M15491,21577 L14216,23580 M14216,23580 L27937,23246 M27937,23246 L15491,21577 M15491,21577 L27937,23246 M27937,23246 L29067,21514 M29067,21514 L15491,21577 M15491,21577 L29067,21514 M29067,21514 L17024,19876 M17024,19876 L15491,21577 M17024,19876 L29067,21514 M29067,21514 L30450,20087 M30450,20087 L17024,19876 M17024,19876 L30450,20087 M30450,20087 L18780,18516 M18780,18516 L17024,19876 M18780,18516 L30450,20087 M30450,20087 L32043,19010 M32043,19010 L18780,18516 M18780,18516 L32043,19010 M32043,19010 L20717,17529 M20717,17529 L18780,18516 M20717,17529 L32043,19010 M32043,19010 L33797,18314 M33797,18314 L20717,17529 M20717,17529 L33797,18314 M33797,18314 L22790,16938 M22790,16938 L20717,17529 M22790,16938 L33797,18314 M33797,18314 L35661,18021 M35661,18021 L22790,16938 M22790,16938 L35661,18021 M35661,18021 L24950,16757 M24950,16757 L22790,16938 M24950,16757 L35661,18021 M35661,18021 L37576,18139 M37576,18139 L24950,16757 M24950,16757 L37576,18139 M37576,18139 L27146,16991 M27146,16991 L24950,16757 M27146,16991 L37576,18139 M37576,18139 L39485,18666 M39485,18666 L27146,16991 M27146,16991 L39485,18666 M39485,18666 L29328,17633 M29328,17633 L27146,16991 M29328,17633 L39485,18666 M39485,18666 L31444,18669 M31444,18669 L29328,17633 M31444,18669 L39485,18666 M39485,18666 L41330,19585 M41330,19585 L31444,18669 M31444,18669 L41330,19585 M41330,19585 L33445,20074 M33445,20074 L31444,18669 M33445,20074 L41330,19585 M41330,19585 L43055,20868 M43055,20868 L33445,20074 M33445,20074 L43055,20868 M43055,20868 L35282,21816 M35282,21816 L33445,20074 M35282,21816 L43055,20868 M43055,20868 L44607,22476 M44607,22476 L35282,21816 M35282,21816 L44607,22476 M44607,22476 L36915,23854 M36915,23854 L35282,21816 M36915,23854 L44607,22476 M44607,22476 L45939,24361 M45939,24361 L36915,23854 M36915,23854 L45939,24361 M45939,24361 L38303,26140 M38303,26140 L36915,23854 M38303,26140 L45939,24361 M45939,24361 L47011,26465 M47011,26465 L38303,26140 M38303,26140 L47011,26465 M47011,26465 L39415,28620 M39415,28620 L38303,26140 M39415,28620 L47011,26465 M47011,26465 L47790,28724 M47790,28724 L39415,28620 M39415,28620 L47790,28724 M47790,28724 L40225,31236 M40225,31236 L39415,28620 M40225,31236 L47790,28724 M47790,28724 L48252,31070 M48252,31070 L40225,31236 M40225,31236 L48252,31070 M48252,31070 L40713,33927 M40713,33927 L40225,31236 M40713,33927 L48252,31070 M48252,31070 L40869,36630 M40869,36630 L40713,33927 M40869,36630 L48252,31070 M48252,31070 L48384,33431 M48384,33431 L40869,36630 M40869,36630 L48384,33431 M48384,33431 L40688,39282 M40688,39282 L40869,36630 M40688,39282 L48384,33431 M48384,33431 L48181,35735 M48181,35735 L40688,39282 M40688,39282 L48181,35735 M48181,35735 L40175,41820 M40175,41820 L40688,39282 M40175,41820 L48181,35735 M48181,35735 L47650,37913 M47650,37913 L40175,41820 M40175,41820 L47650,37913 M47650,37913 L39341,44184 M39341,44184 L40175,41820 M39341,44184 L47650,37913 M47650,37913 L46806,39898 M46806,39898 L39341,44184 M39341,44184 L46806,39898 M46806,39898 L38207,46321 M38207,46321 L39341,44184 M38207,46321 L46806,39898 M46806,39898 L45676,41631 M45676,41631 L38207,46321 M38207,46321 L45676,41631 M45676,41631 L36799,48178 M36799,48178 L38207,46321 M36799,48178 L45676,41631 M45676,41631 L44293,43058 M44293,43058 L36799,48178 M36799,48178 L44293,43058 M44293,43058 L35150,49713 M35150,49713 L36799,48178 M35150,49713 L44293,43058 M44293,43058 L42700,44135 M42700,44135 L35150,49713 M35150,49713 L42700,44135 M42700,44135 L33298,50890 M33298,50890 L35150,49713 M33298,50890 L42700,44135 M42700,44135 L40946,44831 M40946,44831 L33298,50890 M33298,50890 L40946,44831 M40946,44831 L31287,51682 M31287,51682 L33298,50890 M31287,51682 L40946,44831 M40946,44831 L29165,52069 M29165,52069 L31287,51682 M29165,52069 L40946,44831 M40946,44831 L39082,45124 M39082,45124 L29165,52069 M29165,52069 L39082,45124 M39082,45124 L26980,52042 M26980,52042 L29165,52069 M26980,52042 L39082,45124 M39082,45124 L37167,45006 M37167,45006 L26980,52042 M26980,52042 L37167,45006 M37167,45006 L24784,51603 M24784,51603 L26980,52042 M24784,51603 L37167,45006 M37167,45006 L35258,44479 M35258,44479 L24784,51603 M24784,51603 L35258,44479 M35258,44479 L22629,50761 M22629,50761 L24784,51603 M22629,50761 L35258,44479 M35258,44479 L33413,43560 M33413,43560 L22629,50761 M22629,50761 L33413,43560 M33413,43560 L20565,49537 M20565,49537 L22629,50761 M20565,49537 L33413,43560 M33413,43560 L31688,42277 M31688,42277 L20565,49537 M20565,49537 L31688,42277 M31688,42277 L18640,47959 M18640,47959 L20565,49537 M18640,47959 L31688,42277 M31688,42277 L30136,40669 M30136,40669 L18640,47959 M18640,47959 L30136,40669 M30136,40669 L16900,46063 M16900,46063 L18640,47959 M16900,46063 L30136,40669 M30136,40669 L28804,38784 M28804,38784 L16900,46063 M16900,46063 L28804,38784 M28804,38784 L15385,43895 M15385,43895 L16900,46063 M15385,43895 L28804,38784 M28804,38784 L14131,41505 M14131,41505 L15385,43895 M14131,41505 L28804,38784 M28804,38784 L27732,36680 M27732,36680 L14131,41505 M14131,41505 L27732,36680 M27732,36680 L13167,38950 M13167,38950 L14131,41505 M13167,38950 L27732,36680 M27732,36680 L26953,34421 M26953,34421 L13167,38950 M13167,38950 L26953,34421 M26953,34421 L12516,36288 M12516,36288 L13167,38950 M12516,36288 L26953,34421 M26953,34421 L26491,32075 M26491,32075 L12516,36288 M12516,36288 L26491,32075 M26491,32075 L12193,33583 M12193,33583 L12516,36288 M12193,33583 L26491,32075 M26491,32075 L26359,29714 M26359,29714 L12193,33583 M12193,33583 L26359,29714 M26359,29714 L12206,30898 M12206,30898 L12193,33583 M12206,30898 L26359,29714 M26359,29714 L26562,27410 M26562,27410 L12206,30898 M12206,30898 L26562,27410 M26562,27410 L12554,28295 M12554,28295 L12206,30898 M12554,28295 L26562,27410 M26562,27410 L27093,25232 M27093,25232 L12554,28295 M12554,28295 L27093,25232 M27093,25232 L13229,25837 M13229,25837 L12554,28295 M13229,25837 L27093,25232 M27093,25232 L27937,23246 M27937,23246 L13229,25837 M27937,23246 L14216,23580 M14216,23580 L13229,25837 M13229,25837 L27937,23246 " style="stroke:#000000; fill:None;"/>
</svg>
