<?xml version="1.0" encoding="UTF-8" standalone="no"?>
<!-- Created with Inkscape (http://www.inkscape.org/) -->
<svg
   xmlns:dc="http://purl.org/dc/elements/1.1/"
   xmlns:cc="http://creativecommons.org/ns#"
   xmlns:rdf="http://www.w3.org/1999/02/22-rdf-syntax-ns#"
   xmlns:svg="http://www.w3.org/2000/svg"
   xmlns="http://www.w3.org/2000/svg"
   xmlns:sodipodi="http://sodipodi.sourceforge.net/DTD/sodipodi-0.dtd"
   xmlns:inkscape="http://www.inkscape.org/namespaces/inkscape"
   width="210mm"
   height="297mm"
   id="svg2"
   sodipodi:version="0.32"
   inkscape:version="0.46"
   sodipodi:docname="eppleton_logo.svg"
   inkscape:output_extension="org.inkscape.output.svg.inkscape">
  <sodipodi:namedview
     id="base"
     pagecolor="#ffffff"
     bordercolor="#666666"
     borderopacity="1.0"
     inkscape:pageopacity="0.0"
     inkscape:pageshadow="2"
     inkscape:zoom="1.1155855"
     inkscape:cx="367.91812"
     inkscape:cy="802.68086"
     inkscape:document-units="px"
     inkscape:current-layer="layer1"
     showgrid="false"
     inkscape:window-width="1279"
     inkscape:window-height="716"
     inkscape:window-x="0"
     inkscape:window-y="0"
     showguides="false"
     inkscape:guide-bbox="true">
    <inkscape:grid
       type="xygrid"
       id="grid9657" />
    <sodipodi:guide
       orientation="0,1"
       position="27.88912,868.36579"
       id="guide9704" />
  </sodipodi:namedview>
  <defs
     id="defs4">
    <inkscape:perspective
       id="perspective10"
       inkscape:persp3d-origin="372.04724 : 350.78739 : 1"
       inkscape:vp_z="744.09448 : 526.18109 : 1"
       inkscape:vp_y="0 : 1000 : 0"
       inkscape:vp_x="0 : 526.18109 : 1"
       sodipodi:type="inkscape:persp3d" />
    <inkscape:perspective
       sodipodi:type="inkscape:persp3d"
       inkscape:vp_x="0 : 526.18109 : 1"
       inkscape:vp_y="0 : 1000 : 0"
       inkscape:vp_z="744.09448 : 526.18109 : 1"
       inkscape:persp3d-origin="372.04724 : 350.78739 : 1"
       id="perspective8475" />
    <inkscape:perspective
       sodipodi:type="inkscape:persp3d"
       inkscape:vp_x="0 : 526.18109 : 1"
       inkscape:vp_y="0 : 1000 : 0"
       inkscape:vp_z="744.09448 : 526.18109 : 1"
       inkscape:persp3d-origin="372.04724 : 350.78739 : 1"
       id="perspective8525" />
    <inkscape:perspective
       sodipodi:type="inkscape:persp3d"
       inkscape:vp_x="0 : 526.18109 : 1"
       inkscape:vp_y="0 : 1000 : 0"
       inkscape:vp_z="744.09448 : 526.18109 : 1"
       inkscape:persp3d-origin="372.04724 : 350.78739 : 1"
       id="perspective8694" />
    <inkscape:perspective
       id="perspective9386"
       inkscape:persp3d-origin="372.04724 : 350.78739 : 1"
       inkscape:vp_z="744.09448 : 526.18109 : 1"
       inkscape:vp_y="0 : 1000 : 0"
       inkscape:vp_x="0 : 526.18109 : 1"
       sodipodi:type="inkscape:persp3d" />
    <inkscape:perspective
       id="perspective9458"
       inkscape:persp3d-origin="372.04724 : 350.78739 : 1"
       inkscape:vp_z="744.09448 : 526.18109 : 1"
       inkscape:vp_y="0 : 1000 : 0"
       inkscape:vp_x="0 : 526.18109 : 1"
       sodipodi:type="inkscape:persp3d" />
  </defs>
  <metadata
     id="metadata7">
    <rdf:RDF>
      <cc:Work
         rdf:about="">
        <dc:format>image/svg+xml</dc:format>
        <dc:type
           rdf:resource="http://purl.org/dc/dcmitype/StillImage" />
      </cc:Work>
    </rdf:RDF>
  </metadata>
  <g
     id="layer1"
     inkscape:groupmode="layer"
     inkscape:label="Ebene 1">
    <text
       xml:space="preserve"
       style="font-size:55.39730835px;font-style:normal;font-variant:normal;font-weight:normal;font-stretch:normal;text-align:start;line-height:100%;writing-mode:lr-tb;text-anchor:start;fill:#123456;fill-opacity:1;stroke:none;stroke-width:1px;stroke-linecap:butt;stroke-linejoin:miter;stroke-opacity:1;font-family:spaceman;-inkscape-font-specification:spaceman"
       x="212.52214"
       y="150.55124"
       id="text9338"
       sodipodi:linespacing="100%"><tspan
         sodipodi:role="line"
         id="tspan9340"
         x="212.52214"
         y="150.55124">Eppleton</tspan></text>
    <path
       style="fill:#123456;fill-opacity:1;fill-rule:nonzero;stroke:none;stroke-width:35.07400131;stroke-linecap:round;stroke-linejoin:round;stroke-miterlimit:4;stroke-dasharray:8.7685, 8.7685;stroke-dashoffset:0;stroke-opacity:1"
       d="M 149.98749,82.96777 C 141.14944,82.90433 132.80517,85.30754 125.61249,89.56152 C 129.95226,90.28494 133.38115,94.08541 133.64374,98.87402 L 133.64374,98.96777 L 149.48749,113.40527 L 164.29999,99.87402 C 164.08086,94.41551 168.08093,89.7537 173.29999,89.43652 C 173.38497,89.43136 173.46541,89.43933 173.54999,89.43652 C 167.29535,85.78681 160.13622,83.51359 152.45624,83.06152 C 151.62879,83.01281 150.80709,82.97365 149.98749,82.96777 z M 183.01874,96.68652 C 183.21119,97.38923 183.35204,98.11358 183.39374,98.87402 L 183.39374,98.99902 C 183.63124,104.48577 179.62218,109.15002 174.39374,109.46777 C 173.76669,109.50588 173.15003,109.45919 172.54999,109.37402 L 156.08124,124.43652 L 156.08124,137.49902 L 181.29999,137.49902 C 182.93448,135.27547 185.45144,133.76778 188.33124,133.59277 C 192.15306,133.36051 195.55787,135.53049 197.26874,138.84277 C 197.45916,137.48279 197.59593,136.11402 197.67499,134.71777 C 198.51385,119.9035 192.75649,106.24686 183.01874,96.68652 z M 114.58124,98.49902 C 107.185,106.55656 102.4094,117.19557 101.73749,129.06152 L 101.70624,129.65527 C 101.53076,133.57877 101.82482,137.4263 102.51874,141.12402 C 103.52574,137.00929 106.97962,133.85152 111.23749,133.59277 C 114.51548,133.39356 117.49871,134.96108 119.36249,137.49902 L 143.08124,137.49902 L 143.08124,124.62402 L 126.23749,109.21777 C 125.7227,109.34123 125.18837,109.43467 124.64374,109.46777 C 119.37478,109.78798 114.853,105.55608 114.54999,100.03027 C 114.52161,99.51273 114.53614,98.99986 114.58124,98.49902 z M 118.70624,150.49902 C 117.09073,152.28091 114.85431,153.47069 112.33124,153.62402 C 109.76743,153.77983 107.39138,152.84045 105.58124,151.21777 C 111.99931,166.38764 125.73741,177.71438 142.51874,180.28027 C 141.13745,178.65223 140.241,176.56119 140.11249,174.21777 C 139.94468,171.15767 141.11574,168.33709 143.08124,166.37402 L 143.08124,150.49902 L 118.70624,150.49902 z M 156.08124,150.49902 L 156.08124,166.21777 C 157.87177,167.92324 159.05654,170.33151 159.20624,173.06152 L 159.20624,173.18652 C 159.32363,175.89842 158.39247,178.39553 156.79999,180.28027 C 172.90539,177.8481 186.57909,167.20231 193.29999,152.46777 C 192.12665,153.11645 190.83473,153.53835 189.42499,153.62402 C 186.50713,153.80135 183.82634,152.55846 181.95624,150.49902 L 156.08124,150.49902 z"
       id="path3293" />
    <path
       id="path2489"
       d="M 147.42705,270.31274 C 138.589,270.2493 130.24473,272.65251 123.05205,276.90649 C 127.39182,277.62991 130.82071,281.43038 131.0833,286.21899 L 131.0833,286.31274 L 146.92705,300.75024 L 161.73955,287.21899 C 161.52042,281.76048 165.52049,277.09867 170.73955,276.78149 C 170.82453,276.77633 170.90497,276.7843 170.98955,276.78149 C 164.73491,273.13178 157.57578,270.85856 149.8958,270.40649 C 149.06835,270.35778 148.24665,270.31862 147.42705,270.31274 z M 180.4583,284.03149 C 180.65075,284.7342 180.7916,285.45855 180.8333,286.21899 L 180.8333,286.34399 C 181.0708,291.83074 177.06174,296.49499 171.8333,296.81274 C 171.20625,296.85085 170.58959,296.80416 169.98955,296.71899 L 153.5208,311.78149 L 153.5208,324.84399 L 178.73955,324.84399 C 180.37404,322.62044 182.891,321.11275 185.7708,320.93774 C 189.59262,320.70548 192.99743,322.87546 194.7083,326.18774 C 194.89872,324.82776 195.03549,323.45899 195.11455,322.06274 C 195.95341,307.24847 190.19605,293.59183 180.4583,284.03149 z M 112.0208,285.84399 C 104.62456,293.90153 99.84896,304.54054 99.17705,316.40649 L 99.1458,317.00024 C 98.97032,320.92374 99.26438,324.77127 99.9583,328.46899 C 100.9653,324.35426 104.41918,321.19649 108.67705,320.93774 C 111.95504,320.73853 114.93827,322.30605 116.80205,324.84399 L 140.5208,324.84399 L 140.5208,311.96899 L 123.67705,296.56274 C 123.16226,296.6862 122.62793,296.77964 122.0833,296.81274 C 116.81434,297.13295 112.29256,292.90105 111.98955,287.37524 C 111.96117,286.8577 111.9757,286.34483 112.0208,285.84399 z M 116.1458,337.84399 C 114.53029,339.62588 112.29387,340.81566 109.7708,340.96899 C 107.20699,341.1248 104.83094,340.18542 103.0208,338.56274 C 109.43887,353.73261 123.17697,365.05935 139.9583,367.62524 C 138.57701,365.9972 137.68056,363.90616 137.55205,361.56274 C 137.38424,358.50264 138.5553,355.68206 140.5208,353.71899 L 140.5208,337.84399 L 116.1458,337.84399 z M 153.5208,337.84399 L 153.5208,353.56274 C 155.31133,355.26821 156.4961,357.67648 156.6458,360.40649 L 156.6458,360.53149 C 156.76319,363.24339 155.83203,365.7405 154.23955,367.62524 C 170.34495,365.19307 184.01865,354.54728 190.73955,339.81274 C 189.56621,340.46142 188.27429,340.88332 186.86455,340.96899 C 183.94669,341.14632 181.2659,339.90343 179.3958,337.84399 L 153.5208,337.84399 z"
       style="fill:#123456;fill-opacity:1;fill-rule:nonzero;stroke:none;stroke-width:35.07400131;stroke-linecap:round;stroke-linejoin:round;stroke-miterlimit:4;stroke-dasharray:8.7685, 8.7685;stroke-dashoffset:0;stroke-opacity:1" />
    <path
       sodipodi:type="arc"
       style="fill:#123456;fill-opacity:0.98283261;fill-rule:nonzero;stroke:#123456;stroke-width:15.19999981;stroke-linecap:round;stroke-linejoin:round;stroke-miterlimit:4;stroke-dasharray:3.8, 3.8;stroke-dashoffset:0;stroke-opacity:1"
       id="path2512"
       sodipodi:cx="367.6293"
       sodipodi:cy="164.34724"
       sodipodi:rx="34.227558"
       sodipodi:ry="29.790651"
       d="M 401.79058,166.20033 A 34.227558,29.790651 0 1 1 401.81381,165.84096"
       sodipodi:start="0.062243829"
       sodipodi:end="6.3333467"
       sodipodi:open="true"
       transform="matrix(0.146904,6.7191105e-4,8.0963816e-4,-0.1770161,117.42769,315.65213)" />
    <path
       transform="matrix(0.146904,6.7191105e-4,8.0963816e-4,-0.1770161,132.32301,359.86273)"
       sodipodi:open="true"
       sodipodi:end="6.3333467"
       sodipodi:start="0.062243829"
       d="M 401.79058,166.20033 A 34.227558,29.790651 0 1 1 401.81381,165.84096"
       sodipodi:ry="29.790651"
       sodipodi:rx="34.227558"
       sodipodi:cy="164.34724"
       sodipodi:cx="367.6293"
       id="path2514"
       style="fill:#123456;fill-opacity:0.98283261;fill-rule:nonzero;stroke:#123456;stroke-width:15.19999981;stroke-linecap:round;stroke-linejoin:round;stroke-miterlimit:4;stroke-dasharray:3.8, 3.8;stroke-dashoffset:0;stroke-opacity:1"
       sodipodi:type="arc" />
    <path
       sodipodi:type="arc"
       style="fill:#123456;fill-opacity:0.98283261;fill-rule:nonzero;stroke:#123456;stroke-width:15.19999981;stroke-linecap:round;stroke-linejoin:round;stroke-miterlimit:4;stroke-dasharray:3.8, 3.8;stroke-dashoffset:0;stroke-opacity:1"
       id="path2516"
       sodipodi:cx="367.6293"
       sodipodi:cy="164.34724"
       sodipodi:rx="34.227558"
       sodipodi:ry="29.790651"
       d="M 401.79058,166.20033 A 34.227558,29.790651 0 1 1 401.81381,165.84096"
       sodipodi:start="0.062243829"
       sodipodi:end="6.3333467"
       sodipodi:open="true"
       transform="matrix(0.146904,6.7191105e-4,8.0963816e-4,-0.1770161,93.024702,390.12876)" />
    <path
       transform="matrix(0.146904,6.7191105e-4,8.0963816e-4,-0.1770161,54.994083,359.86273)"
       sodipodi:open="true"
       sodipodi:end="6.3333467"
       sodipodi:start="0.062243829"
       d="M 401.79058,166.20033 A 34.227558,29.790651 0 1 1 401.81381,165.84096"
       sodipodi:ry="29.790651"
       sodipodi:rx="34.227558"
       sodipodi:cy="164.34724"
       sodipodi:cx="367.6293"
       id="path2518"
       style="fill:#123456;fill-opacity:0.98283261;fill-rule:nonzero;stroke:#123456;stroke-width:15.19999981;stroke-linecap:round;stroke-linejoin:round;stroke-miterlimit:4;stroke-dasharray:3.8, 3.8;stroke-dashoffset:0;stroke-opacity:1"
       sodipodi:type="arc" />
    <path
       sodipodi:type="arc"
       style="fill:#123456;fill-opacity:0.98283261;fill-rule:nonzero;stroke:#123456;stroke-width:15.19999981;stroke-linecap:round;stroke-linejoin:round;stroke-miterlimit:4;stroke-dasharray:3.8, 3.8;stroke-dashoffset:0;stroke-opacity:1"
       id="path2520"
       sodipodi:cx="367.6293"
       sodipodi:cy="164.34724"
       sodipodi:rx="34.227558"
       sodipodi:ry="29.790651"
       d="M 401.79058,166.20033 A 34.227558,29.790651 0 1 1 401.81381,165.84096"
       sodipodi:start="0.062243829"
       sodipodi:end="6.3333467"
       sodipodi:open="true"
       transform="matrix(0.146904,6.7191105e-4,8.0963816e-4,-0.1770161,67.67096,315.65213)" />
    <text
       sodipodi:linespacing="100%"
       id="text2530"
       y="337.9296"
       x="212.52214"
       style="font-size:55.39730835px;font-style:normal;font-variant:normal;font-weight:normal;font-stretch:normal;text-align:start;line-height:100%;writing-mode:lr-tb;text-anchor:start;fill:#123456;fill-opacity:1;stroke:none;stroke-width:1px;stroke-linecap:butt;stroke-linejoin:miter;stroke-opacity:1;font-family:spaceman;-inkscape-font-specification:spaceman"
       xml:space="preserve"><tspan
         y="337.9296"
         x="212.52214"
         id="tspan2532"
         sodipodi:role="line">Eppleton</tspan></text>
    <g
       id="g3366">
      <text
         sodipodi:linespacing="100%"
         id="text2548"
         y="503.92957"
         x="212.52214"
         style="font-size:55.39730835px;font-style:normal;font-variant:normal;font-weight:normal;font-stretch:normal;text-align:start;line-height:100%;writing-mode:lr-tb;text-anchor:start;fill:#123456;fill-opacity:1;stroke:none;stroke-width:1px;stroke-linecap:butt;stroke-linejoin:miter;stroke-opacity:1;font-family:spaceman;-inkscape-font-specification:spaceman"
         xml:space="preserve"><tspan
           y="503.92957"
           x="212.52214"
           id="tspan2550"
           sodipodi:role="line">Eppleton</tspan></text>
      <rect
         y="494.27521"
         x="114.42377"
         height="5"
         width="68.772034"
         id="rect2552"
         style="opacity:1;fill:#123456;fill-opacity:1;fill-rule:nonzero;stroke:none;stroke-width:0;stroke-linecap:round;stroke-linejoin:round;stroke-miterlimit:4;stroke-dasharray:none;stroke-dashoffset:0;stroke-opacity:1" />
      <rect
         y="447.07413"
         x="-217.211"
         height="4.8593221"
         width="32.959545"
         id="rect3326"
         style="opacity:1;fill:#123456;fill-opacity:1;fill-rule:nonzero;stroke:none;stroke-width:0;stroke-linecap:round;stroke-linejoin:round;stroke-miterlimit:4;stroke-dasharray:none;stroke-dashoffset:0;stroke-opacity:1"
         transform="matrix(0.7358265,-0.6771701,0.6804928,0.7327547,0,0)" />
      <rect
         transform="matrix(-0.7382597,-0.6745166,-0.6778504,0.7351999,0,0)"
         style="opacity:1;fill:#123456;fill-opacity:1;fill-rule:nonzero;stroke:none;stroke-width:0;stroke-linecap:round;stroke-linejoin:round;stroke-miterlimit:4;stroke-dasharray:none;stroke-dashoffset:0;stroke-opacity:1"
         id="rect3336"
         width="32.959545"
         height="4.8593225"
         x="-431.4664"
         y="249.30038" />
      <path
         id="path3340"
         d="M 147.42705,436.31274 C 138.589,436.2493 130.24473,438.65251 123.05205,442.90649 C 127.39182,443.62991 130.82071,447.43038 131.0833,452.21899 L 131.0833,452.31274 L 146.92705,466.75024 L 161.73955,453.21899 C 161.52042,447.76048 165.52049,443.09867 170.73955,442.78149 C 170.82453,442.77633 170.90497,442.7843 170.98955,442.78149 C 164.73491,439.13178 157.57578,436.85856 149.8958,436.40649 C 149.06835,436.35778 148.24665,436.31862 147.42705,436.31274 z M 180.4583,450.03149 C 180.65075,450.7342 180.7916,451.45855 180.8333,452.21899 L 180.8333,452.34399 C 181.0708,457.83074 177.06174,462.49499 171.8333,462.81274 C 171.20625,462.85085 170.58959,462.80416 169.98955,462.71899 L 153.5208,477.78149 L 153.5208,490.84399 L 178.73955,490.84399 C 180.37404,488.62044 182.891,487.11275 185.7708,486.93774 C 189.59262,486.70548 192.99743,488.87546 194.7083,492.18774 C 194.89872,490.82776 195.03549,489.45899 195.11455,488.06274 C 195.95341,473.24847 190.19605,459.59183 180.4583,450.03149 z M 112.0208,451.84399 C 104.62456,459.90153 99.84896,470.54054 99.17705,482.40649 L 99.1458,483.00024 C 98.97032,486.92374 99.26438,490.77127 99.9583,494.46899 C 100.9653,490.35426 104.41918,487.19649 108.67705,486.93774 C 111.95504,486.73853 114.93827,488.30605 116.80205,490.84399 L 140.5208,490.84399 L 140.5208,477.96899 L 123.67705,462.56274 C 123.16226,462.6862 122.62793,462.77964 122.0833,462.81274 C 116.81434,463.13295 112.29256,458.90105 111.98955,453.37524 C 111.96117,452.8577 111.9757,452.34483 112.0208,451.84399 z M 116.1458,503.84399 C 114.53029,505.62588 112.29387,506.81566 109.7708,506.96899 C 107.20699,507.1248 104.83094,506.18542 103.0208,504.56274 C 109.43887,519.73261 123.17697,531.05935 139.9583,533.62524 C 138.57701,531.9972 137.68056,529.90616 137.55205,527.56274 C 137.38424,524.50264 138.5553,521.68206 140.5208,519.71899 L 140.5208,503.84399 L 116.1458,503.84399 z M 153.5208,503.84399 L 153.5208,519.56274 C 155.31133,521.26821 156.4961,523.67648 156.6458,526.40649 L 156.6458,526.53149 C 156.76319,529.24339 155.83203,531.7405 154.23955,533.62524 C 170.34495,531.19307 184.01865,520.54728 190.73955,505.81274 C 189.56621,506.46142 188.27429,506.88332 186.86455,506.96899 C 183.94669,507.14632 181.2659,505.90343 179.3958,503.84399 L 153.5208,503.84399 z"
         style="fill:#123456;fill-opacity:1;fill-rule:nonzero;stroke:none;stroke-width:35.07400131;stroke-linecap:round;stroke-linejoin:round;stroke-miterlimit:4;stroke-dasharray:8.7685, 8.7685;stroke-dashoffset:0;stroke-opacity:1" />
      <path
         sodipodi:type="arc"
         style="fill:#123456;fill-opacity:0.98283261;fill-rule:nonzero;stroke:#123456;stroke-width:15.19999981;stroke-linecap:round;stroke-linejoin:round;stroke-miterlimit:4;stroke-dasharray:3.8, 3.8;stroke-dashoffset:0;stroke-opacity:1"
         id="path3342"
         sodipodi:cx="367.6293"
         sodipodi:cy="164.34724"
         sodipodi:rx="34.227558"
         sodipodi:ry="29.790651"
         d="M 401.79058,166.20033 A 34.227558,29.790651 0 1 1 401.81381,165.84096"
         sodipodi:start="0.062243829"
         sodipodi:end="6.3333467"
         sodipodi:open="true"
         transform="matrix(0.146904,6.7191105e-4,8.0963816e-4,-0.1770161,117.42769,481.65213)" />
      <path
         transform="matrix(0.146904,6.7191105e-4,8.0963816e-4,-0.1770161,132.32301,525.86273)"
         sodipodi:open="true"
         sodipodi:end="6.3333467"
         sodipodi:start="0.062243829"
         d="M 401.79058,166.20033 A 34.227558,29.790651 0 1 1 401.81381,165.84096"
         sodipodi:ry="29.790651"
         sodipodi:rx="34.227558"
         sodipodi:cy="164.34724"
         sodipodi:cx="367.6293"
         id="path3344"
         style="fill:#123456;fill-opacity:0.98283261;fill-rule:nonzero;stroke:#123456;stroke-width:15.19999981;stroke-linecap:round;stroke-linejoin:round;stroke-miterlimit:4;stroke-dasharray:3.8, 3.8;stroke-dashoffset:0;stroke-opacity:1"
         sodipodi:type="arc" />
      <g
         transform="translate(-1.8263705e-2,-44)"
         id="g3352">
        <rect
           y="144.66396"
           x="-572.90723"
           height="5"
           width="57.045925"
           id="rect3324"
           style="opacity:1;fill:#123456;fill-opacity:1;fill-rule:nonzero;stroke:none;stroke-width:0;stroke-linecap:round;stroke-linejoin:round;stroke-miterlimit:4;stroke-dasharray:none;stroke-dashoffset:0;stroke-opacity:1"
           transform="matrix(0,-1,1,0,0,0)" />
        <path
           transform="matrix(0.146904,6.7191105e-4,8.0963816e-4,-0.1770161,93.024702,600.12876)"
           sodipodi:open="true"
           sodipodi:end="6.3333467"
           sodipodi:start="0.062243829"
           d="M 401.79058,166.20033 A 34.227558,29.790651 0 1 1 401.81381,165.84096"
           sodipodi:ry="29.790651"
           sodipodi:rx="34.227558"
           sodipodi:cy="164.34724"
           sodipodi:cx="367.6293"
           id="path3346"
           style="fill:#123456;fill-opacity:0.98283261;fill-rule:nonzero;stroke:#123456;stroke-width:15.19999981;stroke-linecap:round;stroke-linejoin:round;stroke-miterlimit:4;stroke-dasharray:3.8, 3.8;stroke-dashoffset:0;stroke-opacity:1"
           sodipodi:type="arc" />
      </g>
      <path
         transform="matrix(0.146904,6.7191105e-4,8.0963816e-4,-0.1770161,54.994083,525.86273)"
         sodipodi:open="true"
         sodipodi:end="6.3333467"
         sodipodi:start="0.062243829"
         d="M 401.79058,166.20033 A 34.227558,29.790651 0 1 1 401.81381,165.84096"
         sodipodi:ry="29.790651"
         sodipodi:rx="34.227558"
         sodipodi:cy="164.34724"
         sodipodi:cx="367.6293"
         id="path3348"
         style="fill:#123456;fill-opacity:0.98283261;fill-rule:nonzero;stroke:#123456;stroke-width:15.19999981;stroke-linecap:round;stroke-linejoin:round;stroke-miterlimit:4;stroke-dasharray:3.8, 3.8;stroke-dashoffset:0;stroke-opacity:1"
         sodipodi:type="arc" />
      <path
         sodipodi:type="arc"
         style="fill:#123456;fill-opacity:0.98283261;fill-rule:nonzero;stroke:#123456;stroke-width:15.19999981;stroke-linecap:round;stroke-linejoin:round;stroke-miterlimit:4;stroke-dasharray:3.8, 3.8;stroke-dashoffset:0;stroke-opacity:1"
         id="path3350"
         sodipodi:cx="367.6293"
         sodipodi:cy="164.34724"
         sodipodi:rx="34.227558"
         sodipodi:ry="29.790651"
         d="M 401.79058,166.20033 A 34.227558,29.790651 0 1 1 401.81381,165.84096"
         sodipodi:start="0.062243829"
         sodipodi:end="6.3333467"
         sodipodi:open="true"
         transform="matrix(0.146904,6.7191105e-4,8.0963816e-4,-0.1770161,67.67096,481.65213)" />
    </g>
  </g>
</svg>
