<?xml version="1.0" encoding="UTF-8" standalone="no"?>
<!-- Created with Inkscape (http://www.inkscape.org/) -->
<svg
   xmlns:dc="http://purl.org/dc/elements/1.1/"
   xmlns:cc="http://creativecommons.org/ns#"
   xmlns:rdf="http://www.w3.org/1999/02/22-rdf-syntax-ns#"
   xmlns:svg="http://www.w3.org/2000/svg"
   xmlns="http://www.w3.org/2000/svg"
   xmlns:xlink="http://www.w3.org/1999/xlink"
   xmlns:sodipodi="http://sodipodi.sourceforge.net/DTD/sodipodi-0.dtd"
   xmlns:inkscape="http://www.inkscape.org/namespaces/inkscape"
   width="40"
   height="50"
   id="svg2"
   sodipodi:version="0.32"
   inkscape:version="0.46"
   sodipodi:docbase="G:\Projs\Cliparts Stocker\released"
   sodipodi:docname="arrow_go_back.svg"
   inkscape:export-filename="/datas/wiki/arrow_go_back.png"
   inkscape:export-xdpi="90.000000"
   inkscape:export-ydpi="90.000000"
   inkscape:output_extension="org.inkscape.output.svg.inkscape"
   version="1.0">
  <defs
     id="defs4">
    <linearGradient
       id="linearGradient1416">
      <stop
         id="stop1418"
         offset="0.0000000"
         style="stop-color:#3ec549;stop-opacity:0.50836122;" />
      <stop
         id="stop1420"
         offset="1.0000000"
         style="stop-color:#4fe756;stop-opacity:0.11705685;" />
    </linearGradient>
    <linearGradient
       id="linearGradient1406">
      <stop
         style="stop-color:#56d760;stop-opacity:0.58862877;"
         offset="0.0000000"
         id="stop1408" />
      <stop
         style="stop-color:#18b01f;stop-opacity:0.39215687;"
         offset="1.0000000"
         id="stop1410" />
    </linearGradient>
    <linearGradient
       id="linearGradient2127">
      <stop
         style="stop-color:#1b611f;stop-opacity:1.0000000;"
         offset="0.0000000"
         id="stop2129" />
      <stop
         style="stop-color:#103f14;stop-opacity:1.0000000;"
         offset="1.0000000"
         id="stop2131" />
    </linearGradient>
    <linearGradient
       id="linearGradient1352">
      <stop
         style="stop-color:#179907;stop-opacity:1.0000000;"
         offset="0.0000000"
         id="stop1354" />
      <stop
         style="stop-color:#0f7402;stop-opacity:1.0000000;"
         offset="1.0000000"
         id="stop1356" />
    </linearGradient>
    <linearGradient
       inkscape:collect="always"
       xlink:href="#linearGradient1416"
       id="linearGradient1401"
       gradientUnits="userSpaceOnUse"
       x1="23.254534"
       y1="16.125437"
       x2="23.254532"
       y2="59.48378"
       gradientTransform="translate(7.128229,-6.703019)" />
    <linearGradient
       inkscape:collect="always"
       xlink:href="#linearGradient2127"
       id="linearGradient1405"
       gradientUnits="userSpaceOnUse"
       x1="11.969465"
       y1="12.458015"
       x2="32"
       y2="63.253853"
       gradientTransform="translate(7.434728,-6.626926)" />
    <linearGradient
       inkscape:collect="always"
       xlink:href="#linearGradient1406"
       id="linearGradient1414"
       gradientUnits="userSpaceOnUse"
       x1="28.414125"
       y1="16.25"
       x2="20.353058"
       y2="62.974236" />
    <linearGradient
       inkscape:collect="always"
       xlink:href="#linearGradient1352"
       id="linearGradient1423"
       x1="32.382065"
       y1="15.40625"
       x2="16.504204"
       y2="62.810131"
       gradientUnits="userSpaceOnUse" />
    <linearGradient
       inkscape:collect="always"
       xlink:href="#linearGradient1416"
       id="linearGradient2487"
       gradientUnits="userSpaceOnUse"
       gradientTransform="translate(7.128229,-6.703019)"
       x1="23.254534"
       y1="16.125437"
       x2="23.254532"
       y2="59.48378" />
    <linearGradient
       inkscape:collect="always"
       xlink:href="#linearGradient1406"
       id="linearGradient2490"
       gradientUnits="userSpaceOnUse"
       x1="28.414125"
       y1="16.25"
       x2="20.353058"
       y2="62.974236"
       gradientTransform="translate(7.616408,-6.640634)" />
    <linearGradient
       inkscape:collect="always"
       xlink:href="#linearGradient1352"
       id="linearGradient2493"
       gradientUnits="userSpaceOnUse"
       x1="32.382065"
       y1="15.40625"
       x2="16.504204"
       y2="62.810131"
       gradientTransform="translate(7.434728,-6.626926)" />
    <linearGradient
       inkscape:collect="always"
       xlink:href="#linearGradient2127"
       id="linearGradient2496"
       gradientUnits="userSpaceOnUse"
       gradientTransform="translate(7.434728,-6.626926)"
       x1="11.969465"
       y1="12.458015"
       x2="32"
       y2="63.253853" />
    <linearGradient
       inkscape:collect="always"
       xlink:href="#linearGradient2127"
       id="linearGradient2504"
       gradientUnits="userSpaceOnUse"
       gradientTransform="translate(7.434728,-6.626926)"
       x1="11.969465"
       y1="12.458015"
       x2="32"
       y2="63.253853" />
    <linearGradient
       inkscape:collect="always"
       xlink:href="#linearGradient1352"
       id="linearGradient2506"
       gradientUnits="userSpaceOnUse"
       gradientTransform="translate(7.434728,-6.626926)"
       x1="32.382065"
       y1="15.40625"
       x2="16.504204"
       y2="62.810131" />
    <linearGradient
       inkscape:collect="always"
       xlink:href="#linearGradient1406"
       id="linearGradient2508"
       gradientUnits="userSpaceOnUse"
       gradientTransform="translate(7.616408,-6.640634)"
       x1="28.414125"
       y1="16.25"
       x2="20.353058"
       y2="62.974236" />
    <linearGradient
       inkscape:collect="always"
       xlink:href="#linearGradient1416"
       id="linearGradient2510"
       gradientUnits="userSpaceOnUse"
       gradientTransform="translate(7.128229,-6.703019)"
       x1="23.254534"
       y1="16.125437"
       x2="23.254532"
       y2="59.48378" />
  </defs>
  <sodipodi:namedview
     id="base"
     pagecolor="#ffffff"
     bordercolor="#666666"
     borderopacity="1.0"
     inkscape:pageopacity="0.0"
     inkscape:pageshadow="2"
     inkscape:zoom="16.14"
     inkscape:cx="28.519207"
     inkscape:cy="25"
     inkscape:document-units="px"
     inkscape:current-layer="layer1"
     showgrid="false"
     inkscape:grid-bbox="false"
     inkscape:grid-points="false"
     inkscape:window-width="1680"
     inkscape:window-height="1003"
     inkscape:window-x="-4"
     inkscape:window-y="-4"
     showguides="false">
    <inkscape:grid
       id="GridFromPre046Settings"
       type="xygrid"
       originx="0px"
       originy="0px"
       spacingx="1px"
       spacingy="1px"
       color="#0000ff"
       empcolor="#0000ff"
       opacity="0.2"
       empopacity="0.4"
       empspacing="4"
       visible="true"
       enabled="true" />
  </sodipodi:namedview>
  <metadata
     id="metadata7">
    <rdf:RDF>
      <cc:Work
         rdf:about="">
        <dc:format>image/svg+xml</dc:format>
        <dc:type
           rdf:resource="http://purl.org/dc/dcmitype/StillImage" />
        <dc:title>Arrow Go Back</dc:title>
        <dc:date>2005-11-01</dc:date>
        <dc:creator>
          <cc:Agent>
            <dc:title>Jean-Victor Balin</dc:title>
          </cc:Agent>
        </dc:creator>
        <dc:description>jean.victor.balin@gmail.com</dc:description>
        <cc:license
           rdf:resource="http://creativecommons.org/licenses/publicdomain/" />
        <dc:subject>
          <rdf:Bag>
            <rdf:li>icon</rdf:li>
            <rdf:li>arrow</rdf:li>
          </rdf:Bag>
        </dc:subject>
        <dc:language>fr-FR</dc:language>
      </cc:Work>
      <cc:License
         rdf:about="http://creativecommons.org/licenses/publicdomain/">
        <cc:permits
           rdf:resource="http://creativecommons.org/ns#Reproduction" />
        <cc:permits
           rdf:resource="http://creativecommons.org/ns#Distribution" />
        <cc:permits
           rdf:resource="http://creativecommons.org/ns#DerivativeWorks" />
      </cc:License>
    </rdf:RDF>
  </metadata>
  <g
     inkscape:label="Calque 1"
     inkscape:groupmode="layer"
     id="layer1">
    <g
       id="g2498"
       transform="translate(-12,-7.0000001)">
      <path
         sodipodi:nodetypes="cccsccccscccccssccc"
         id="path1388"
         d="M 18.590978,24.529324 C 18.590978,26.112298 18.590978,37.693081 18.590978,38.591824 C 17.590978,38.640625 13.590978,38.591824 13.590978,38.591824 C 13.143729,38.600957 12.760621,38.709146 12.590978,39.123074 C 12.421336,39.537001 12.497527,39.990191 12.809728,40.310574 L 28.809728,56.310574 C 29.245162,56.732377 29.936795,56.732377 30.372228,56.310574 L 46.372228,40.310574 C 46.68443,39.990191 46.79187,39.537002 46.622228,39.123074 C 46.452584,38.709145 46.038227,38.600957 45.590978,38.591824 C 45.590979,38.591824 41.590978,38.591824 40.590978,38.591824 C 40.590978,38.009407 40.590978,34.813629 40.590978,30.654324 C 40.434728,28.373074 41.434728,27.373074 44.434728,27.373074 C 47.434728,27.373074 50.497228,27.373074 50.497228,27.373074 C 50.497228,27.373074 51.497228,27.373074 51.497228,26.373074 C 51.497228,20.373074 51.434728,14.373073 51.434728,8.373074 C 51.434728,7.373074 50.434728,7.373074 50.434728,7.373074 C 50.434728,7.373074 38.840903,7.373074 37.934728,7.373074 C 23.434728,7.373074 18.434728,15.373074 18.590978,24.529324 z"
         style="fill:url(#linearGradient2504);fill-opacity:1;stroke:none;stroke-width:0;stroke-linecap:round;stroke-linejoin:round;stroke-miterlimit:4;stroke-dasharray:none;stroke-opacity:1" />
      <path
         id="path2147"
         d="M 37.872228,8.779324 C 30.869311,8.779324 26.427009,10.695516 23.684728,13.529324 C 20.942447,16.363132 19.798388,20.233569 19.872228,24.560574 C 19.872349,24.57099 19.872349,24.581408 19.872228,24.591824 C 19.872228,26.174798 19.872228,37.755581 19.872228,38.654324 C 19.873059,39.37274 19.308619,39.964713 18.590978,39.998074 C 17.559982,40.048388 15.152331,40.009628 14.278478,39.998074 L 29.528478,55.248074 L 44.809728,39.998074 C 43.977074,39.998132 41.390113,39.998074 40.528478,39.998074 C 39.786322,39.998132 39.18467,39.39648 39.184728,38.654324 C 39.184728,38.078786 39.184728,34.898034 39.184728,30.810574 C 39.182548,30.778746 39.186487,30.74866 39.184728,30.716824 C 39.111926,29.399407 39.395913,28.07976 40.372228,27.216824 C 41.372136,26.333034 42.722949,26.091824 44.372228,26.091824 C 47.202125,26.091824 49.772853,26.091824 50.090978,26.091824 C 50.088726,20.329619 50.03073,14.55879 50.028478,8.779324 C 49.42474,8.779324 38.753483,8.779324 37.872228,8.779324 z"
         style="fill:url(#linearGradient2506);fill-opacity:1;stroke:none;stroke-width:0;stroke-linecap:round;stroke-linejoin:round;stroke-miterlimit:4;stroke-opacity:1" />
      <path
         id="path1412"
         d="M 38.053908,9.609366 C 31.204953,9.609366 27.017904,11.466252 24.460158,14.109366 C 21.903366,16.751494 20.826502,20.37715 20.897658,24.546866 C 20.897855,24.563818 20.897855,24.561164 20.897658,24.578116 C 20.897658,26.16109 20.897658,37.741873 20.897658,38.640616 C 20.899001,39.801641 19.96368,40.774202 18.803908,40.828116 C 18.209795,40.85711 17.382708,40.834678 16.491408,40.828116 L 29.710158,54.046866 L 42.960158,40.828116 C 42.059346,40.828109 41.162968,40.828116 40.710158,40.828116 C 39.511822,40.82821 38.522564,39.838952 38.522658,38.640616 C 38.522658,38.069664 38.522658,34.899814 38.522658,30.859366 C 38.517961,30.790791 38.522116,30.814276 38.522658,30.796866 C 38.5232,30.779456 38.520815,30.701011 38.522658,30.734366 C 38.441471,29.265208 38.756025,27.670035 39.991408,26.578116 C 41.216836,25.494995 42.822338,25.234366 44.553908,25.234366 C 46.966279,25.234366 48.628079,25.234366 49.428908,25.234366 C 49.422212,20.037486 49.373107,14.82916 49.366408,9.609366 C 47.593054,9.609366 38.873996,9.609366 38.053908,9.609366 z"
         style="fill:url(#linearGradient2508);fill-opacity:1;stroke:none;stroke-width:0;stroke-linecap:round;stroke-linejoin:round;stroke-miterlimit:4;stroke-opacity:1" />
      <path
         sodipodi:nodetypes="cssssscccsc"
         id="path4351"
         d="M 39.790199,9.6345475 C 33.349932,9.3688365 28.109021,10.227564 24.543503,13.987344 C 22.000142,16.669275 20.900616,19.491167 20.971979,24.609481 C 20.972193,24.624796 20.972157,24.625415 20.971979,24.640731 C 20.971979,26.223705 20.971979,37.804488 20.971979,38.703231 C 20.973285,39.832593 20.0691,40.775776 18.940729,40.828231 C 18.317276,40.858656 17.396433,40.839755 16.503229,40.828231 L 29.717433,54.042435 L 39.510615,44.249253 C 31.62836,42.317288 26.121073,35.168917 26.121073,26.296981 C 26.121074,19.144562 28.225822,13.998602 39.790199,9.6345475 z"
         style="fill:url(#linearGradient2510);fill-opacity:1;stroke:none;stroke-width:0;stroke-linecap:round;stroke-linejoin:round;stroke-miterlimit:4;stroke-opacity:1" />
    </g>
  </g>
</svg>
